<svg version="1.2" xmlns="http://www.w3.org/2000/svg" viewBox="0 0 44 41" width="44" height="41"><defs><clipPath clipPathUnits="userSpaceOnUse" id="cp1"><path d="m0 13.25h25.72v25.21h-25.72z"/></clipPath></defs><style>.a{fill:#e0bb71}.b{fill:#ffefcf}.c{fill:#ff9500}.d{fill:#c50}.e{fill:#ffc462}.f{fill:#ffd580}</style><path class="a" d="m22 10q-0.4 0-0.9-0.1 0 0-0.1-0.1c-0.8-1.4-2.5-2.7-3.7-3.5q-0.2-0.2-0.4-0.3c0-0.1-0.1-0.2 0-0.3 0.3-0.6 1.7-1.8 3.7-3.6q0.5-0.5 1.1-1 0.1-0.1 0.1-0.1 0.1 0 0.1 0 0.1 0.1 0.1 0.2c0.2 0.5 0.7 0.9 1.5 1.4 0.9 0.7 2.1 1.6 3.3 3.4q0.1 0 0.1 0.1c-0.3 1.9-2.2 3.9-4.9 3.9z"/><path class="b" d="m26.7 6.1c-2.2-3.2-4.3-3.5-4.9-4.9-2.5 2.3-4.3 3.9-4.8 4.6 1.1 0.8 3.2 2.3 4.2 3.9 2.8 0.5 5.2-1.5 5.5-3.6z"/><path class="c" d="m36.2 6.6c-5.7-3.2-13.5-0.2-16.7 5.5-2.1 3.6-1.8 9.8 1.4 13.5 1.4-0.3 6.5-3.3 8.2-6.4-1.7 3.1-1.7 8.9-1.1 10.3 4.8 0.8 10.3-2.3 12.3-5.9 3.2-5.7 1.7-13.8-4.1-17z"/><path class="d" d="m32.2 13.7c-0.4-0.2-1.4 0.7-1.5 1.7-0.2 1-2.2 4.7-3.5 6.2 0.8-0.8 1.5-1.6 1.9-2.4-0.4 0.8-0.8 1.8-1 2.9 0.6-1.9 2.7-5.5 3.5-6.2 0.8-0.7 1-1.9 0.6-2.2z"/><path class="e" d="m35.7 7.5c-5.8-3.2-12.4-0.8-15.6 4.9-2 3.7-2.1 8.9 1.1 12.5 3.1-1.7 7.3-6.7 7.9-10.4 0.7-4 3.4-2.2 3.8-2 1.2 0.7-0.2 2.9-1 3.6-0.6 0.5-3.4 4.5-3.6 7.2-0.3 2.3 0 4.1 0.4 5 3.6 0 6.4-2.8 8.5-6.4 3.2-5.7 2.6-12.1-1.5-14.4z"/><path class="f" d="m26 15.9c-1.3 2.7-3.6 4.1-4.8 3.5-1.3-0.7-1.1-3.4 0.3-6 1.9-3.3 6-6.7 9-6.6 0.7 0 5.1 0.9 0.2 3.9-1.4 0.8-3.2 2.3-4.7 5.2z"/><path class="f" d="m35.5 21.4c-1.5 2.6-3.6 4.1-4.9 3.5-1.2-0.7-1.1-3.4 0.4-6 1.4-2.6 3.6-4.1 4.9-3.4 1.2 0.7 1 3.3-0.4 5.9z"/><path class="f" d="m34.2 11.7c-0.9-1-1.2-2.3-0.5-2.9 0.6-0.6 2-0.4 2.9 0.6 1 1 1.2 2.3 0.6 2.9-0.7 0.6-2 0.4-3-0.6z"/><g clip-path="url(#cp1)"><path class="c" d="m2.6 17.4c4.5-5.3 13.3-5.3 18.6-0.9 3.5 2.9 5.6 9.1 3.8 13.9-1.5 0.3-7.6-0.8-10.6-3.2 3 2.4 5.1 8.2 5.1 9.8-4.5 2.5-11 1.6-14.4-1.3-5.4-4.4-7-13-2.5-18.3z"/></g><path class="d" d="m9.3 23q0 0 0-0.1c0.4-0.3 1.6 0.2 2.2 1.1 0.5 0.9 3.9 3.9 5.8 4.8-1.1-0.4-2.1-1-2.9-1.6 0.8 0.6 1.5 1.5 2.2 2.5-1.3-1.7-4.8-4.5-5.9-4.8-1-0.4-1.7-1.5-1.4-1.9z"/><path class="e" d="m3.5 18.1c4.4-5.3 11.9-5.4 17.3-1 3.4 2.8 5.4 8 3.6 12.8-3.7-0.6-9.7-4-11.7-7.3-2.2-3.7-4.2-1-4.5-0.6q0 0 0 0h-0.1c-0.9 1.2 1.4 2.8 2.4 3.1 0.7 0.3 5.1 3.3 6.3 5.8 1.2 2.3 1.5 4.1 1.5 5.1-3.6 1.4-7.4-0.3-10.8-3.1-5.4-4.5-7.2-11-4-14.8z"/><path class="f" d="m16.2 22.8c2.4 2.1 5.2 2.7 6.2 1.6 0.9-1.2-0.3-3.7-2.7-5.8-3-2.5-8.4-4.3-11.4-3.1-0.6 0.3-4.7 2.8 1.3 3.9 1.7 0.3 4 1 6.6 3.4z"/><path class="f" d="m9 31.8c2.4 2 5.2 2.7 6.1 1.6 1-1.2-0.2-3.8-2.6-5.8-2.4-2-5.2-2.7-6.2-1.5-0.9 1.1 0.3 3.7 2.7 5.7z"/><path class="f" d="m6.5 21.7c0.6-1.3 0.3-2.7-0.5-3.1-0.9-0.4-2.1 0.4-2.7 1.7-0.6 1.3-0.4 2.7 0.5 3.1 0.9 0.4 2.1-0.4 2.7-1.7z"/></svg>