<svg xmlns="http://www.w3.org/2000/svg" xmlns:xlink="http://www.w3.org/1999/xlink" width="500" zoomAndPan="magnify" viewBox="0 0 375 374.999991" height="500" preserveAspectRatio="xMidYMid meet" version="1.0"><defs><clipPath id="54d33a18b3"><path d="M 112.070312 197.824219 L 181.648438 197.824219 L 181.648438 312.742188 L 112.070312 312.742188 Z M 112.070312 197.824219 " clip-rule="nonzero"/></clipPath><clipPath id="e822451fc2"><path d="M 251.609375 83.882812 L 374.960938 83.882812 L 374.960938 147 L 251.609375 147 Z M 251.609375 83.882812 " clip-rule="nonzero"/></clipPath></defs><path fill="#ff953f" d="M 281.210938 183.820312 C 262.234375 204.484375 218.332031 200.777344 196.601562 194.753906 C 192.5625 193.636719 189.300781 192.4375 187.101562 191.324219 C 167.933594 181.476562 155.398438 162.570312 143.753906 144.472656 L 109.207031 90.875 C 101.296875 78.628906 89.988281 63.097656 95.335938 47.425781 C 97.730469 40.175781 103.917969 34.261719 111.242188 32.199219 C 124.753906 28.378906 139.019531 37.46875 146.652344 49.265625 C 154.257812 61.0625 157.152344 75.171875 161.804688 88.417969 C 179.664062 139.285156 228 175.398438 281.210938 183.820312 " fill-opacity="1" fill-rule="nonzero"/><path fill="#f1721b" d="M 186.601562 255.324219 C 178.269531 259.671875 165.207031 259.476562 154.648438 255.742188 C 117.066406 242.46875 89.261719 224.816406 60.457031 197.261719 C 51.707031 188.898438 44.996094 179.5 40.09375 169.683594 C 36.722656 162.960938 34.183594 156.074219 32.429688 149.15625 C 25.550781 122.300781 30.285156 95.53125 42.375 80.386719 C 42.960938 79.664062 43.574219 78.964844 44.1875 78.296875 C 36.050781 91.097656 44.128906 114.96875 51.261719 128.355469 C 58.394531 141.742188 70.625 151.722656 83.71875 159.394531 C 96.785156 167.089844 110.910156 172.75 124.308594 179.863281 C 150.859375 193.890625 188.605469 209.085938 194.511719 238.535156 C 196.183594 246.734375 192.617188 252.226562 186.601562 255.324219 " fill-opacity="1" fill-rule="nonzero"/><g clip-path="url(#54d33a18b3)"><path fill="#ffe6d9" d="M 181.570312 312.742188 C 161.722656 304.433594 137.976562 295.457031 116.636719 292.628906 C 112.289062 271.449219 111.042969 249.660156 112.960938 228.144531 C 112.992188 227.71875 113.019531 227.324219 113.082031 226.898438 C 113.902344 217.34375 115.421875 207.878906 117.519531 198.507812 C 117.578125 198.324219 117.578125 198.109375 117.609375 197.898438 C 124.144531 203.007812 131.261719 207.695312 138.800781 211.835938 C 138.890625 211.894531 139.011719 211.957031 139.101562 211.988281 C 141.171875 213.144531 143.300781 214.238281 145.457031 215.273438 C 153.207031 219.078125 161.296875 222.242188 169.472656 224.617188 C 169.5625 225.527344 170.929688 237.882812 171.511719 243.085938 C 174.125 266.488281 176.980469 288.761719 181.570312 312.742188 " fill-opacity="1" fill-rule="nonzero"/></g><path fill="#ffd0c0" d="M 171.511719 243.085938 C 171.417969 243.023438 171.359375 242.996094 171.296875 242.933594 C 152.113281 228.632812 136.855469 228.175781 113.082031 226.898438 C 113.902344 217.34375 115.421875 207.878906 117.519531 198.507812 C 117.578125 198.324219 117.578125 198.109375 117.609375 197.898438 C 124.144531 203.007812 131.261719 207.695312 138.800781 211.835938 C 138.890625 211.894531 139.011719 211.957031 139.101562 211.988281 C 141.171875 213.144531 143.300781 214.238281 145.457031 215.273438 C 153.207031 219.078125 161.296875 222.242188 169.472656 224.617188 C 169.5625 225.527344 170.929688 237.882812 171.511719 243.085938 " fill-opacity="1" fill-rule="nonzero"/><g clip-path="url(#e822451fc2)"><path fill="#ffe6d9" d="M 374.960938 145.285156 C 363.703125 126.933594 351.183594 104.832031 345.101562 84.160156 C 323.527344 83.125 301.828125 85.246094 280.886719 90.457031 C 280.472656 90.550781 280.085938 90.644531 279.675781 90.769531 C 270.371094 93.054688 261.261719 96.015625 252.335938 99.535156 C 252.164062 99.621094 251.953125 99.65625 251.75 99.714844 C 257.800781 105.394531 263.523438 111.707031 268.769531 118.527344 C 268.84375 118.609375 268.921875 118.71875 268.964844 118.804688 C 270.425781 120.671875 271.835938 122.605469 273.191406 124.582031 C 278.136719 131.664062 282.507812 139.171875 286.109375 146.894531 C 287.027344 146.84375 299.429688 146.292969 304.65625 146.0625 C 328.15625 145.046875 350.585938 144.4375 374.960938 145.285156 " fill-opacity="1" fill-rule="nonzero"/></g><path fill="#ffd0c0" d="M 304.65625 146.0625 C 304.582031 145.984375 304.542969 145.929688 304.472656 145.878906 C 287.402344 129.109375 284.597656 114.085938 279.675781 90.769531 C 270.371094 93.054688 261.261719 96.015625 252.335938 99.535156 C 252.164062 99.621094 251.953125 99.65625 251.75 99.714844 C 257.800781 105.394531 263.523438 111.707031 268.769531 118.527344 C 268.84375 118.609375 268.921875 118.71875 268.964844 118.804688 C 270.425781 120.671875 271.835938 122.605469 273.191406 124.582031 C 278.136719 131.664062 282.507812 139.171875 286.109375 146.894531 C 287.027344 146.84375 299.429688 146.292969 304.65625 146.0625 " fill-opacity="1" fill-rule="nonzero"/><path fill="#f1721b" d="M 196.601562 194.753906 C 192.5625 193.636719 189.300781 192.4375 187.101562 191.324219 C 167.933594 181.476562 155.398438 162.570312 143.753906 144.472656 C 142.222656 142.101562 140.6875 139.703125 139.15625 137.335938 C 134.226562 127.292969 129.574219 117.117188 125.117188 106.796875 C 121.355469 98.125 111.660156 85.910156 112.550781 76.007812 C 113.75 62.457031 128.207031 60.785156 134.558594 71.660156 C 144.144531 88.085938 148.628906 107.242188 156.484375 124.589844 C 165.511719 144.5 176.710938 176.710938 192.8125 191.492188 C 194.09375 192.660156 195.347656 193.75 196.601562 194.753906 " fill-opacity="1" fill-rule="nonzero"/><path fill="#ff953f" d="M 186.601562 255.324219 C 186.40625 255.210938 185.941406 255.101562 186.070312 254.933594 C 198.8125 238.539062 144.566406 211.613281 109.402344 202.757812 C 71.847656 193.296875 54.800781 180.417969 37.695312 161.621094 C 35.578125 157.410156 33.824219 153.257812 32.429688 149.15625 C 25.550781 122.300781 30.285156 95.53125 42.375 80.386719 C 42.960938 79.664062 43.574219 78.964844 44.1875 78.296875 C 36.050781 91.097656 44.128906 114.96875 51.261719 128.355469 C 58.394531 141.742188 70.625 151.722656 83.71875 159.394531 C 96.785156 167.089844 110.910156 172.75 124.308594 179.863281 C 150.859375 193.890625 188.605469 209.085938 194.511719 238.535156 C 196.183594 246.734375 192.617188 252.226562 186.601562 255.324219 " fill-opacity="1" fill-rule="nonzero"/><path fill="#ffbd5f" d="M 275.273438 188.394531 C 260.898438 193.023438 232.34375 187.835938 206.019531 178.441406 C 191.308594 173.167969 180.722656 163.15625 172.558594 150.578125 C 171.304688 148.65625 170.109375 146.675781 168.964844 144.640625 C 156.679688 122.691406 150.273438 94.640625 142.082031 70.152344 C 139.492188 62.34375 137.121094 54.089844 131.414062 48.207031 C 125.730469 42.296875 115.394531 39.898438 109.402344 45.5 C 104.835938 49.742188 104.417969 57.101562 106.675781 62.957031 C 108.902344 68.789062 113.277344 73.5 117.429688 78.1875 C 137.597656 100.914062 154.480469 126.570312 167.546875 154.011719 C 169.355469 157.773438 171.054688 161.566406 172.726562 165.414062 C 173.867188 168.09375 175.011719 170.824219 176.097656 173.558594 C 180.054688 183.515625 183.5625 193.609375 186.515625 203.898438 C 189.832031 215.277344 192.507812 226.851562 194.511719 238.535156 C 164.230469 204.960938 127.121094 202.699219 98.789062 190.179688 C 69.007812 176.960938 47.113281 171.636719 35.605469 141.125 C 26.746094 117.589844 33.183594 90.511719 46.46875 69.148438 C 47.695312 67.199219 49.035156 64.996094 50.453125 62.597656 C 61.152344 44.777344 77.5625 17 94.191406 11.367188 C 127.875 -0.0078125 159.355469 19.203125 243.207031 66.25 C 247.332031 68.5625 251.175781 71.519531 254.742188 74.949219 C 287.921875 106.910156 296.476562 181.5625 275.273438 188.394531 " fill-opacity="1" fill-rule="nonzero"/><path fill="#ffcc7b" d="M 263.238281 157.96875 C 252.375 170.855469 215.351562 170.796875 199.414062 165.414062 C 187.9375 161.539062 179.414062 156.742188 172.558594 150.578125 C 171.304688 148.65625 170.109375 146.675781 168.964844 144.640625 C 156.679688 122.691406 150.273438 94.640625 142.082031 70.152344 C 139.492188 62.34375 137.121094 54.089844 131.414062 48.207031 C 125.730469 42.296875 115.394531 39.898438 109.402344 45.5 C 104.835938 49.742188 104.417969 57.101562 106.675781 62.957031 C 108.902344 68.789062 113.277344 73.5 117.429688 78.1875 C 137.597656 100.914062 154.480469 126.570312 167.546875 154.011719 C 169.355469 157.773438 171.054688 161.566406 172.726562 165.414062 C 173.867188 168.09375 175.011719 170.824219 176.097656 173.558594 C 180.054688 183.515625 183.5625 193.609375 186.515625 203.898438 C 182.644531 206.296875 166.484375 194.863281 161.582031 192.941406 C 150.800781 188.730469 139.546875 185.855469 128.683594 181.839844 C 103.109375 172.386719 79.679688 155.820312 64.800781 132.925781 C 51.402344 112.375 45.496094 86.523438 50.453125 62.597656 C 61.152344 44.777344 77.5625 17 94.191406 11.367188 C 127.875 -0.0078125 159.355469 19.203125 243.207031 66.25 C 247.332031 68.5625 251.175781 71.519531 254.742188 74.949219 C 261.011719 86.605469 265.078125 99.519531 268.117188 112.488281 C 271.710938 127.90625 273.4375 145.867188 263.238281 157.96875 " fill-opacity="1" fill-rule="nonzero"/><path fill="#ffd78f" d="M 167.546875 154.011719 C 168.4375 156.6875 169.242188 159.394531 169.996094 162.097656 L 99.375 75.84375 C 94.722656 70.152344 89.988281 64.296875 87.785156 57.296875 C 84.914062 48.121094 87.0625 37.523438 93.273438 30.164062 C 99.484375 22.832031 109.597656 18.953125 119.125 20.292969 C 130.632812 21.910156 140.214844 30.46875 145.984375 40.566406 C 151.777344 50.632812 154.339844 62.175781 156.847656 73.527344 L 173.199219 147.625 C 171.722656 146.703125 170.304688 145.726562 168.964844 144.640625 C 156.679688 122.691406 150.273438 94.640625 142.082031 70.152344 C 139.492188 62.34375 137.121094 54.089844 131.414062 48.207031 C 125.730469 42.296875 115.394531 39.898438 109.402344 45.5 C 104.835938 49.742188 104.417969 57.101562 106.675781 62.957031 C 108.902344 68.789062 113.277344 73.5 117.429688 78.1875 C 137.597656 100.914062 154.480469 126.570312 167.546875 154.011719 " fill-opacity="1" fill-rule="nonzero"/></svg>