<svg xmlns="http://www.w3.org/2000/svg" xmlns:xlink="http://www.w3.org/1999/xlink" width="500" zoomAndPan="magnify" viewBox="0 0 375 374.999991" height="500" preserveAspectRatio="xMidYMid meet" version="1.0"><defs><clipPath id="e154b9f044"><path d="M 144 141.835938 L 352.234375 141.835938 L 352.234375 225.664062 L 144 225.664062 Z M 144 141.835938 " clip-rule="nonzero"/></clipPath></defs><path fill="#ffd78f" d="M 204.085938 161.582031 C 205.1875 162.515625 206.277344 163.9375 206.625 165.980469 L 206.628906 166 C 206.683594 166.359375 206.722656 166.757812 206.726562 167.167969 C 206.753906 167.347656 206.738281 167.511719 206.722656 167.695312 C 206.703125 168.230469 206.648438 168.808594 206.496094 169.421875 C 206.4375 169.695312 206.367188 169.964844 206.277344 170.265625 C 205.980469 171.277344 205.550781 172.433594 204.882812 173.675781 C 193.234375 195.570312 190.492188 221.125 183.296875 244.851562 C 182.359375 247.925781 181.339844 251.152344 178.984375 253.34375 C 176.613281 255.554688 173.230469 256.351562 170 256.78125 C 168.882812 256.929688 167.742188 257.0625 166.613281 257.152344 L 166.433594 257.179688 C 165.429688 257.269531 164.421875 257.339844 163.414062 257.390625 C 163.171875 257.410156 162.949219 257.421875 162.726562 257.433594 C 162.019531 257.460938 161.308594 257.472656 160.597656 257.492188 C 160.011719 257.507812 159.445312 257.515625 158.871094 257.511719 C 156.980469 257.496094 155.097656 257.472656 153.210938 257.371094 C 152.351562 257.335938 151.503906 257.261719 150.636719 257.191406 C 150.539062 257.203125 150.4375 257.199219 150.351562 257.171875 C 149.585938 257.105469 148.824219 257.039062 148.058594 256.949219 C 147.273438 256.886719 146.507812 256.796875 145.71875 256.691406 C 144.660156 256.570312 143.601562 256.445312 142.539062 256.277344 C 142.351562 256.246094 142.167969 256.234375 141.976562 256.203125 C 140.082031 255.917969 138.199219 255.59375 136.3125 255.226562 C 136.0625 255.183594 135.832031 255.136719 135.601562 255.089844 C 134.425781 254.863281 133.269531 254.628906 132.09375 254.382812 C 129.757812 253.878906 124.898438 252.722656 124.835938 252.710938 C 116.4375 250.625 107.808594 248.105469 98.808594 245.539062 C 95.8125 244.691406 86.738281 242.199219 85.253906 241.8125 C 80.824219 240.652344 76.277344 239.53125 71.621094 238.503906 C 70.609375 238.269531 69.578125 238.039062 68.546875 237.832031 C 65.710938 237.242188 62.835938 236.679688 59.90625 236.167969 C 58.902344 235.972656 57.878906 235.804688 56.859375 235.652344 C 56.042969 235.511719 55.230469 235.390625 54.417969 235.269531 C 52.933594 235.023438 51.4375 234.824219 49.941406 234.625 C 46.390625 234.144531 42.765625 233.757812 39.058594 233.464844 C 29.929688 232.730469 22.996094 219.105469 29.632812 212.785156 C 81.507812 163.480469 97.300781 125.160156 130.875 91.71875 C 137.8125 84.824219 149.3125 82.53125 158.550781 85.734375 C 161.925781 86.910156 164.230469 88.945312 166.058594 91.476562 C 169.097656 95.65625 170.789062 101.203125 173.855469 106.253906 C 181.550781 118.992188 190.257812 131.453125 201.152344 143.828125 C 205.160156 148.371094 204.820312 152.839844 203.71875 155.9375 C 202.957031 158.027344 201.839844 159.5 201.515625 159.914062 C 201.445312 159.988281 201.410156 160.03125 201.410156 160.03125 L 201.433594 160.050781 C 201.496094 160.0625 201.648438 160.121094 201.863281 160.207031 C 202.363281 160.417969 203.222656 160.855469 204.085938 161.582031 " fill-opacity="1" fill-rule="nonzero"/><path fill="#ffcc7b" d="M 206.625 165.980469 L 206.628906 166 C 206.683594 166.359375 206.722656 166.757812 206.726562 167.167969 C 206.753906 167.347656 206.738281 167.511719 206.722656 167.695312 C 206.703125 168.230469 206.648438 168.808594 206.496094 169.421875 C 206.4375 169.695312 206.367188 169.964844 206.277344 170.265625 C 205.980469 171.277344 205.550781 172.433594 204.882812 173.675781 C 193.234375 195.570312 190.492188 221.125 183.296875 244.851562 C 182.359375 247.925781 181.339844 251.152344 178.984375 253.34375 C 176.613281 255.554688 173.230469 256.351562 170 256.78125 C 168.882812 256.929688 167.742188 257.0625 166.613281 257.152344 L 166.433594 257.179688 C 165.429688 257.269531 164.421875 257.339844 163.414062 257.390625 C 163.171875 257.410156 162.949219 257.421875 162.726562 257.433594 C 162.019531 257.460938 161.308594 257.472656 160.597656 257.492188 C 160.011719 257.507812 159.445312 257.515625 158.871094 257.511719 C 156.980469 257.496094 155.097656 257.472656 153.210938 257.371094 C 152.351562 257.335938 151.503906 257.261719 150.636719 257.191406 C 150.539062 257.203125 150.4375 257.199219 150.351562 257.171875 C 149.585938 257.105469 148.824219 257.039062 148.058594 256.949219 C 147.273438 256.886719 146.507812 256.796875 145.71875 256.691406 C 144.660156 256.570312 143.601562 256.445312 142.539062 256.277344 C 142.351562 256.246094 142.167969 256.234375 141.976562 256.203125 C 140.082031 255.917969 138.199219 255.59375 136.3125 255.226562 C 136.0625 255.183594 135.832031 255.136719 135.601562 255.089844 C 134.425781 254.863281 133.269531 254.628906 132.09375 254.382812 C 129.757812 253.878906 124.898438 252.722656 124.835938 252.710938 C 116.4375 250.625 107.808594 248.105469 98.808594 245.539062 C 95.8125 244.691406 86.738281 242.199219 85.253906 241.8125 C 80.824219 240.652344 76.277344 239.53125 71.621094 238.503906 C 70.609375 238.269531 69.578125 238.039062 68.546875 237.832031 C 65.710938 237.242188 62.835938 236.679688 59.90625 236.167969 C 58.902344 235.972656 57.878906 235.804688 56.859375 235.652344 C 56.042969 235.511719 55.230469 235.390625 54.417969 235.269531 C 52.933594 235.023438 51.4375 234.824219 49.941406 234.625 C 57.425781 233.226562 66.109375 230.464844 69.113281 229.726562 C 80.714844 226.90625 92.183594 223.441406 103.414062 219.378906 C 125.53125 211.34375 146.777344 200.960938 166.660156 188.402344 C 177.734375 181.410156 188.761719 172.230469 198.90625 163.933594 C 199.578125 163.40625 200.460938 161.824219 201.433594 160.050781 C 201.496094 160.0625 201.648438 160.121094 201.863281 160.207031 C 202.363281 160.417969 203.222656 160.855469 204.085938 161.582031 C 205.1875 162.515625 206.277344 163.9375 206.625 165.980469 " fill-opacity="1" fill-rule="nonzero"/><path fill="#ff953f" d="M 201.410156 160.03125 C 198.199219 170.027344 161.648438 188.917969 122.167969 204.464844 C 93.351562 215.835938 62.980469 225.402344 42.839844 228.472656 C 41.527344 228.671875 40.226562 228.542969 39.027344 228.15625 C 30.257812 225.371094 26.136719 209.203125 54.214844 207.878906 C 106.335938 205.460938 159.214844 190.730469 201.410156 160.03125 " fill-opacity="1" fill-rule="nonzero"/><path fill="#f1721b" d="M 201.410156 160.03125 C 198.199219 170.027344 161.648438 188.917969 122.167969 204.464844 C 105.019531 208.589844 87.507812 211.261719 69.890625 212.425781 C 60.394531 213.050781 50.882812 213.699219 43.886719 220.863281 C 42.125 222.679688 40.632812 225.449219 39.027344 228.15625 C 30.257812 225.371094 26.136719 209.203125 54.214844 207.878906 C 106.335938 205.460938 159.214844 190.730469 201.410156 160.03125 " fill-opacity="1" fill-rule="nonzero"/><path fill="#ffcc7b" d="M 201.410156 160.03125 C 201.410156 160.03125 201.582031 160.089844 201.863281 160.207031 C 199.347656 161.730469 196.511719 162.910156 193.804688 163.992188 C 182.941406 168.347656 172.019531 172.710938 160.996094 176.824219 C 129.761719 188.476562 97.796875 198.019531 64.667969 199.191406 C 62.28125 199.289062 59.347656 199.019531 58.347656 196.851562 C 57.207031 194.441406 59.324219 191.738281 61.414062 190.078125 C 94.558594 163.886719 125.550781 100.789062 149.714844 93.910156 C 156.09375 92.089844 161.1875 90.625 166.058594 91.476562 C 167.8125 93.898438 169.125 96.792969 170.515625 99.777344 C 171.53125 101.925781 172.578125 104.125 173.855469 106.253906 C 181.550781 118.992188 190.257812 131.453125 201.152344 143.828125 C 208.40625 152.050781 201.410156 160.03125 201.410156 160.03125 " fill-opacity="1" fill-rule="nonzero"/><path fill="#ffbd5f" d="M 201.410156 160.03125 C 201.410156 160.03125 201.582031 160.089844 201.863281 160.207031 C 199.347656 161.730469 196.511719 162.910156 193.804688 163.992188 C 182.941406 168.347656 172.019531 172.710938 160.996094 176.824219 C 149.933594 179.597656 138.675781 181.484375 127.320312 182.453125 C 121.753906 182.929688 114.960938 182.574219 112.226562 177.695312 C 110.050781 173.8125 111.617188 168.976562 113.402344 164.898438 C 117.273438 156.046875 122.015625 147.59375 127.53125 139.632812 C 137.414062 125.332031 149.777344 112.609375 163.941406 102.484375 C 166.605469 100.574219 168.699219 99.769531 170.515625 99.777344 C 171.53125 101.925781 172.578125 104.125 173.855469 106.253906 C 181.550781 118.992188 190.257812 131.453125 201.152344 143.828125 C 208.40625 152.050781 201.410156 160.03125 201.410156 160.03125 " fill-opacity="1" fill-rule="nonzero"/><path fill="#ffcc7b" d="M 201.515625 159.914062 C 202.230469 158.585938 202.972656 157.171875 203.71875 155.9375 C 202.957031 158.027344 201.839844 159.5 201.515625 159.914062 " fill-opacity="1" fill-rule="nonzero"/><path fill="#ffbd5f" d="M 206.628906 166 C 206.964844 167.945312 206.59375 170.464844 204.882812 173.675781 C 193.234375 195.570312 190.492188 221.125 183.296875 244.851562 C 182.359375 247.925781 181.339844 251.152344 178.984375 253.34375 C 176.613281 255.554688 173.230469 256.351562 170 256.78125 C 155.035156 258.785156 140.296875 256.519531 124.835938 252.710938 C 120.019531 249.535156 115.390625 246 111.042969 242.160156 C 108.269531 239.710938 105.371094 236.585938 105.710938 232.914062 C 106.109375 228.414062 110.917969 225.894531 115.070312 224.125 C 137.628906 214.480469 159.449219 203.011719 180.199219 189.890625 C 185.867188 186.304688 191.484375 182.542969 196.535156 178.113281 C 198.820312 176.121094 203.816406 172.550781 206.628906 166 " fill-opacity="1" fill-rule="nonzero"/><g clip-path="url(#e154b9f044)"><path fill="#ffe6d9" d="M 352.234375 183.734375 C 323.414062 189.082031 297.410156 204.011719 270.058594 214.550781 C 242.707031 225.089844 211.132812 231.074219 184.644531 218.5 C 181.488281 217.011719 178.472656 215.269531 175.511719 213.421875 C 169.917969 209.921875 164.546875 206.023438 158.925781 202.5625 C 154.257812 199.6875 149.265625 197.078125 144.074219 195.351562 C 160.144531 188.304688 174.605469 181.050781 185.015625 174.578125 C 187 175.472656 189.003906 176.285156 191.046875 177.011719 C 210.605469 184.054688 232.890625 183.726562 251.9375 175.328125 C 264.710938 169.695312 275.769531 160.894531 287.671875 153.59375 C 299.554688 146.28125 314.238281 140.960938 328.152344 141.984375 C 336.429688 155.734375 343.953125 169.980469 352.234375 183.734375 " fill-opacity="1" fill-rule="nonzero"/></g><path fill="#e88b72" d="M 214.949219 220.011719 C 214.691406 219.851562 214.542969 219.636719 214.511719 219.367188 C 214.34375 217.792969 213.902344 212.351562 213.796875 211.488281 C 213.703125 210.707031 213.4375 209.542969 212.972656 208.058594 C 212.511719 206.59375 212.210938 205.429688 212.109375 204.589844 C 211.992188 203.566406 211.691406 202.410156 211.21875 201.125 C 210.75 199.839844 210.195312 198.613281 209.582031 197.457031 C 208.996094 196.347656 208.484375 195.132812 208.035156 193.828125 C 207.585938 192.523438 207.316406 191.367188 207.214844 190.367188 C 207.195312 190.179688 207.285156 190.007812 207.492188 189.847656 C 207.699219 189.691406 207.925781 189.597656 208.175781 189.574219 C 208.476562 189.539062 208.796875 189.832031 209.144531 190.410156 C 209.542969 191.070312 209.984375 192.023438 210.4375 193.257812 C 210.894531 194.488281 211.171875 195.222656 211.25 195.457031 C 211.621094 196.542969 211.761719 197.101562 212.140625 198.183594 C 212.386719 198.882812 212.527344 199.222656 212.789062 199.910156 C 212.824219 199.472656 212.824219 198.894531 212.792969 198.1875 C 212.695312 195.933594 212.652344 194.023438 212.730469 192.527344 C 212.785156 191.488281 212.914062 190.667969 213.09375 190.097656 C 213.292969 189.46875 213.582031 189.128906 213.964844 189.078125 C 214.707031 188.976562 215.09375 189.0625 215.132812 189.328125 C 215.347656 190.863281 215.339844 193.167969 215.0625 196.25 C 214.785156 199.328125 214.730469 201.652344 214.933594 203.214844 C 214.933594 203.476562 214.933594 203.609375 214.929688 203.871094 C 214.925781 204.285156 214.941406 204.527344 214.980469 204.605469 L 215.066406 205.253906 C 215.214844 206.410156 215.515625 208.179688 215.894531 210.566406 C 216.234375 212.710938 216.371094 213.785156 216.6875 215.929688 L 217.125 217.804688 L 217.257812 218.816406 C 217.300781 219.136719 217.179688 219.4375 216.894531 219.703125 C 216.613281 219.972656 216.246094 220.136719 215.808594 220.191406 C 215.496094 220.230469 215.207031 220.171875 214.949219 220.011719 " fill-opacity="1" fill-rule="nonzero"/><path fill="#e88b72" d="M 232.121094 214.4375 C 232.320312 213.488281 232.367188 212.359375 232.277344 211.058594 C 232.191406 209.761719 232.035156 208.292969 231.839844 206.679688 C 231.753906 205.980469 231.613281 205.074219 231.386719 203.984375 C 231.078125 202.515625 230.933594 201.78125 230.597656 200.320312 C 230.269531 198.890625 229.703125 197.125 229 195.027344 C 228.402344 193.246094 227.660156 191.703125 226.789062 190.398438 C 226.378906 189.789062 225.941406 189.332031 225.460938 189.035156 C 224.980469 188.738281 224.507812 188.632812 224.046875 188.71875 C 223.363281 188.839844 222.976562 189.484375 222.804688 190.554688 C 222.621094 191.695312 222.519531 192.984375 222.59375 194.3125 C 222.679688 195.753906 222.808594 197.128906 222.992188 198.417969 C 223.066406 198.953125 223.113281 199.21875 223.171875 199.753906 C 223.214844 200.132812 223.277344 200.644531 223.386719 201.289062 L 223.417969 201.449219 C 223.722656 203.242188 224.335938 205.4375 225.164062 207.972656 C 226.285156 211.390625 227.40625 213.863281 228.640625 215.175781 C 229.417969 216.007812 230.160156 216.347656 230.839844 216.21875 C 231.457031 216.101562 231.894531 215.5 232.121094 214.4375 Z M 228.746094 218.140625 C 227.972656 217.78125 227.277344 217.222656 226.632812 216.484375 C 225.496094 215.183594 224.503906 213.308594 223.664062 210.867188 C 223.082031 209.175781 222.476562 207.210938 222.011719 204.941406 C 221.839844 204.09375 220.988281 199.109375 220.828125 198.113281 C 220.570312 196.507812 220.429688 195.054688 220.355469 193.816406 C 220.277344 192.527344 220.308594 191.160156 220.5625 189.859375 C 220.789062 188.710938 221.316406 187.804688 222.050781 187.210938 C 222.5 186.910156 222.96875 186.71875 223.453125 186.628906 C 224.886719 186.367188 226.132812 186.707031 227.1875 187.660156 C 228.359375 188.71875 229.246094 190.039062 229.886719 191.480469 C 230.667969 193.230469 231.328125 195.003906 231.761719 196.664062 C 232.242188 198.511719 232.710938 200.296875 233.066406 201.972656 L 233.546875 204.242188 C 233.644531 204.695312 233.753906 205.566406 233.863281 206.84375 C 233.953125 207.851562 234.070312 208.703125 234.214844 209.394531 C 234.226562 209.457031 234.234375 209.488281 234.25 209.550781 C 234.226562 210.335938 234.320312 211.230469 234.53125 212.242188 C 234.683594 212.984375 234.664062 213.796875 234.460938 214.671875 C 234.261719 215.542969 233.832031 216.335938 233.304688 217.027344 C 232.746094 217.757812 232.035156 218.273438 231.164062 218.4375 C 230.324219 218.597656 229.515625 218.496094 228.746094 218.140625 " fill-opacity="1" fill-rule="nonzero"/><path fill="#e88b72" d="M 244.441406 212.851562 C 242.933594 211.691406 241.644531 210.09375 240.65625 208.113281 C 239.605469 206.003906 238.683594 203.660156 237.933594 201.136719 C 237.253906 198.847656 236.585938 196.332031 235.949219 193.605469 C 235.640625 192.289062 235.46875 191.636719 235.179688 190.3125 C 234.976562 189.382812 234.910156 187.886719 234.535156 187.367188 C 234.421875 187.214844 234.097656 186.964844 234.023438 186.648438 C 233.949219 186.332031 234.003906 186.019531 234.1875 185.710938 C 234.371094 185.402344 234.609375 185.214844 234.90625 185.144531 C 235.867188 184.914062 236.578125 185.730469 237.039062 187.605469 C 237.335938 188.820312 237.96875 191.097656 238.941406 194.441406 C 239.910156 197.78125 240.425781 200.367188 240.855469 201.273438 C 240.984375 201.550781 241.386719 202.230469 241.777344 203.226562 C 242.164062 204.222656 242.441406 205.046875 242.609375 205.707031 C 242.753906 206.289062 243.035156 206.980469 243.457031 207.785156 C 243.878906 208.585938 244.410156 209.375 245.007812 210.144531 C 245.636719 210.949219 246.34375 211.585938 247.136719 212.011719 C 247.925781 212.4375 248.671875 212.554688 249.367188 212.363281 C 249.792969 212.246094 250.117188 212.035156 250.335938 211.71875 C 250.558594 211.40625 250.644531 211 250.621094 210.539062 C 250.578125 209.773438 250.480469 209.011719 250.28125 208.304688 L 248.132812 200.65625 C 247.863281 199.6875 247.386719 198.476562 246.804688 197.050781 C 246.15625 195.480469 245.742188 194.230469 245.511719 193.390625 L 245.433594 193.117188 C 245.316406 192.699219 245.191406 192.324219 245.074219 191.992188 C 244.921875 191.542969 244.855469 191.316406 244.71875 190.863281 C 244.5 190.132812 244.175781 189.003906 243.667969 187.558594 C 243.214844 186.261719 242.828125 185.140625 242.574219 184.226562 C 242.496094 183.9375 242.578125 183.644531 242.824219 183.351562 C 243.074219 183.058594 243.382812 182.859375 243.75 182.753906 C 244.253906 183.003906 244.503906 183.125 245.003906 183.371094 L 245.195312 184.035156 C 245.289062 184.347656 245.320312 184.765625 245.363281 185.21875 C 245.429688 185.949219 245.535156 186.414062 245.5625 186.515625 C 246.25 188.894531 247.347656 192.144531 248.8125 196.226562 C 250.347656 200.507812 251.460938 203.902344 252.167969 206.328125 C 252.546875 207.632812 252.734375 208.820312 252.722656 209.898438 C 252.714844 210.550781 252.605469 211.109375 252.394531 211.5625 C 252.179688 212.015625 251.828125 212.453125 251.367188 212.871094 C 250.925781 213.265625 250.289062 213.59375 249.46875 213.816406 C 247.578125 214.328125 245.890625 213.960938 244.441406 212.851562 " fill-opacity="1" fill-rule="nonzero"/><path fill="#e88b72" d="M 271.601562 206.027344 C 270.785156 205.957031 270.003906 205.738281 269.316406 205.355469 C 268.6875 205 268.039062 204.445312 267.386719 203.742188 C 266.734375 203.039062 266.171875 202.246094 265.671875 201.433594 C 264.824219 200.058594 263.855469 198.140625 262.871094 195.726562 C 262.632812 195.148438 262.261719 194.140625 261.75 192.707031 C 261.410156 191.738281 260.4375 188.863281 260.171875 188.121094 C 259.640625 186.609375 259.3125 185.386719 259.1875 184.453125 C 258.96875 184.09375 258.789062 183.714844 258.644531 183.304688 C 258.097656 181.765625 258.253906 180.316406 259.078125 178.945312 C 259.898438 177.578125 261.183594 176.558594 262.945312 175.871094 C 263.613281 175.613281 264.292969 175.546875 265 175.675781 C 265.699219 175.800781 266.160156 176.128906 266.375 176.65625 C 266.480469 176.910156 266.460938 177.152344 266.3125 177.386719 C 266.167969 177.621094 265.941406 177.800781 265.632812 177.921875 C 265.371094 178.027344 265.078125 178.101562 264.75 178.140625 C 264.421875 178.183594 264.191406 178.144531 264.054688 178.019531 L 263.550781 178.21875 L 263.519531 178.140625 C 262.566406 178.511719 261.804688 179.027344 261.339844 179.671875 C 260.992188 180.15625 260.839844 180.863281 260.847656 181.722656 C 260.851562 182.042969 260.898438 182.429688 261.007812 182.882812 C 261.113281 183.335938 261.265625 183.757812 261.363281 184.097656 C 261.421875 184.292969 261.546875 184.726562 261.773438 185.335938 C 262.003906 185.859375 262.125 186.117188 262.347656 186.644531 C 262.558594 187.15625 262.664062 187.414062 262.863281 187.929688 C 263.007812 188.3125 263.113281 188.78125 263.191406 189.328125 C 263.289062 190.019531 263.386719 190.492188 263.476562 190.746094 L 263.8125 191.664062 C 264.175781 192.65625 264.75 194.023438 265.433594 195.710938 C 266.011719 197.125 266.757812 198.550781 267.59375 199.867188 C 268.359375 201.082031 269.292969 202.082031 270.34375 202.757812 C 271.398438 203.429688 272.539062 203.582031 273.734375 203.113281 C 274.226562 202.921875 274.746094 202.433594 275.289062 201.710938 C 275.863281 200.949219 276.335938 200.496094 276.65625 200.367188 C 277.058594 200.203125 277.550781 200.21875 278.140625 200.417969 C 278.523438 201.347656 278.417969 202.242188 277.808594 203.066406 C 277.246094 203.828125 276.441406 204.507812 275.445312 205.027344 C 274.890625 205.3125 274.417969 205.519531 274.066406 205.65625 C 273.242188 205.976562 272.417969 206.097656 271.601562 206.027344 " fill-opacity="1" fill-rule="nonzero"/><path fill="#e88b72" d="M 285.867188 190.21875 C 285.277344 189.179688 284.5 187.902344 283.566406 186.390625 C 280.332031 181.152344 278.46875 177.84375 277.886719 176.585938 L 277.75 176.292969 C 277.609375 176.65625 277.773438 177.933594 278.222656 180.132812 C 278.675781 182.332031 279.214844 184.660156 279.832031 187.121094 C 280.453125 189.585938 280.90625 191.195312 281.210938 191.953125 C 282.503906 191.730469 283.800781 191.320312 285.09375 190.71875 C 285.316406 190.617188 285.574219 190.449219 285.867188 190.21875 Z M 289.914062 197.863281 C 289.632812 197.816406 289.410156 197.621094 289.246094 197.277344 L 286.96875 192.449219 C 286.503906 192.398438 285.730469 192.523438 284.652344 192.808594 C 283.574219 193.09375 282.578125 193.414062 281.664062 193.757812 C 281.585938 194.417969 281.660156 195.144531 281.832031 195.957031 C 281.902344 196.285156 282.125 197.386719 282.242188 198.046875 C 282.363281 198.703125 282.429688 199.289062 282.449219 199.800781 C 282.46875 200.308594 282.488281 200.917969 282.378906 201.054688 C 281.976562 201.550781 280.539062 201.546875 280.160156 201.117188 C 280.304688 200.585938 280.164062 199.257812 279.726562 197.136719 C 279.113281 194.15625 276.648438 183.203125 276.121094 180.703125 C 275.585938 178.207031 275.238281 176.066406 275.070312 174.292969 C 274.882812 172.324219 275.035156 171.21875 275.558594 170.972656 C 276.082031 170.730469 276.734375 170.585938 276.894531 170.707031 C 277.363281 171.066406 278.707031 173.976562 280.992188 177.46875 C 283.234375 180.894531 284.742188 183.277344 285.390625 184.621094 C 286.019531 185.921875 287.085938 187.714844 288.53125 189.984375 C 290.011719 192.292969 291.105469 194.21875 291.820312 195.683594 C 292.222656 196.515625 291.957031 197.15625 291.023438 197.605469 C 290.566406 197.824219 290.195312 197.90625 289.914062 197.863281 " fill-opacity="1" fill-rule="nonzero"/><path fill="#e88b72" d="M 300.546875 183.917969 C 295.492188 179.292969 291.089844 174.773438 287.257812 170.585938 L 293.488281 182.414062 C 294.019531 183.421875 295.0625 185.09375 296.53125 187.398438 C 298.125 189.902344 299.117188 191.589844 299.527344 192.359375 C 299.640625 192.574219 299.585938 192.84375 299.363281 193.160156 C 299.140625 193.476562 298.828125 193.738281 298.441406 193.945312 C 297.851562 194.25 297.457031 194.207031 297.257812 193.820312 C 297.074219 193.382812 296.984375 193.164062 296.800781 192.726562 C 296.457031 191.925781 296.222656 191.40625 296.097656 191.164062 C 295.433594 189.886719 294.300781 187.902344 292.707031 185.210938 C 291.089844 182.46875 290.132812 180.789062 289.820312 180.1875 L 287.433594 175.546875 C 287.050781 174.800781 286.488281 173.660156 285.835938 172.15625 C 285.261719 170.847656 284.75 169.6875 284.261719 168.746094 L 284.152344 168.53125 C 283.527344 167.324219 283.484375 166.578125 284.023438 166.300781 C 284.339844 166.136719 285.015625 166.457031 286.066406 167.253906 C 287.789062 168.554688 290.5 171.089844 294.214844 174.800781 C 296.371094 176.953125 299.085938 179.777344 302.40625 183.203125 C 302.324219 183.125 303.023438 183.792969 304.4375 185.277344 C 304.5 185.339844 304.523438 185.371094 304.582031 185.433594 C 303.273438 183.144531 294.089844 166.757812 291.691406 162.570312 C 291.449219 161.929688 291.660156 161.414062 292.324219 161.027344 C 292.964844 160.65625 293.554688 160.925781 294.09375 161.835938 L 294.214844 162.046875 C 294.238281 162.410156 294.363281 162.792969 294.597656 163.195312 C 295.4375 164.621094 305.769531 182.765625 308.28125 187.058594 C 308.5 187.433594 308.59375 187.855469 308.5625 188.332031 C 308.527344 188.808594 308.347656 189.140625 308.015625 189.332031 C 307.46875 189.648438 304.882812 187.890625 300.546875 183.917969 " fill-opacity="1" fill-rule="nonzero"/><path fill="#e88b72" d="M 311.890625 178.003906 C 311.277344 177.558594 310.605469 176.738281 309.871094 175.566406 C 309.609375 175.148438 309.128906 174.347656 308.472656 173.171875 C 307.988281 172.296875 307.429688 171.324219 306.769531 170.292969 C 305.332031 168.039062 300.953125 161.320312 299.519531 159.0625 C 299.285156 158.695312 299.242188 158.285156 299.378906 157.828125 C 299.515625 157.371094 299.769531 157.027344 300.140625 156.789062 C 300.375 156.640625 300.625 156.59375 300.890625 156.648438 C 301.152344 156.703125 301.367188 156.855469 301.527344 157.105469 C 302.828125 159.117188 304.472656 161.917969 306.445312 165.527344 C 308.632812 169.515625 310.238281 172.339844 311.292969 173.988281 C 312.066406 175.203125 312.609375 176.089844 312.914062 176.652344 C 313.21875 177.214844 313.386719 177.617188 313.410156 177.859375 C 313.4375 178.097656 313.359375 178.277344 313.175781 178.394531 C 312.914062 178.558594 312.480469 178.429688 311.890625 178.003906 Z M 315.042969 184.921875 C 314.601562 184.847656 314.265625 184.621094 314.035156 184.253906 C 313.78125 183.835938 313.710938 183.375 313.839844 182.863281 C 313.964844 182.351562 314.25 181.957031 314.699219 181.671875 C 315.179688 181.371094 315.664062 181.277344 316.167969 181.390625 C 316.671875 181.503906 317.078125 181.800781 317.386719 182.28125 C 317.898438 183.082031 317.503906 183.90625 316.1875 184.734375 C 315.863281 184.9375 315.480469 185 315.042969 184.921875 " fill-opacity="1" fill-rule="nonzero"/><path fill="#ffd0c0" d="M 191.046875 177.011719 C 190.234375 177.800781 189.371094 178.597656 188.597656 179.429688 C 181.699219 186.886719 176.867188 195.445312 176.289062 205.792969 C 176.148438 208.277344 176.132812 211.046875 175.511719 213.421875 C 169.917969 209.921875 164.546875 206.023438 158.925781 202.5625 C 154.257812 199.6875 149.265625 197.078125 144.074219 195.351562 C 160.144531 188.304688 174.605469 181.050781 185.015625 174.578125 C 187 175.472656 189.003906 176.285156 191.046875 177.011719 " fill-opacity="1" fill-rule="nonzero"/></svg>