<svg version="1.2" xmlns="http://www.w3.org/2000/svg" viewBox="0 0 58 56" width="58" height="56">
	<title>check-svg</title>
	<defs>
		<clipPath clipPathUnits="userSpaceOnUse" id="cp1">
			<path d="m4 3h50.95v50.95h-50.95z"/>
		</clipPath>
		<clipPath clipPathUnits="userSpaceOnUse" id="cp2">
			<path d="m3.95 2.95h51v51h-51z"/>
		</clipPath>
	</defs>
	<style>
		.s0 { fill: #99522b } 
		.s1 { fill: none;stroke: #3fb24f;stroke-miterlimit:10;stroke-width: .4 } 
		.s2 { fill: #ffffff } 
	</style>
	<g id="Clip-Path" clip-path="url(#cp1)">
		<g id="Layer">
			<path id="Layer" class="s0" d="m29.5 54c-14.1 0-25.5-11.4-25.5-25.5 0-14.1 11.4-25.5 25.5-25.5 14.1 0 25.5 11.4 25.5 25.5 0 14.1-11.4 25.5-25.5 25.5z"/>
		</g>
	</g>
	<g id="Clip-Path" clip-path="url(#cp2)">
		<g id="Layer">
			<path id="Layer" fill-rule="evenodd" class="s1" d="m29.5 54c-14.1 0-25.5-11.4-25.5-25.5 0-14.1 11.4-25.5 25.5-25.5 14.1 0 25.5 11.4 25.5 25.5 0 14.1-11.4 25.5-25.5 25.5z"/>
		</g>
	</g>
	<path id="Layer" class="s2" d="m24.3 44.4l-11-14.3 4.2-3.2 6.9 8.9 17.1-20.6 4.1 3.4z"/>
</svg>