<svg version="1.2" xmlns="http://www.w3.org/2000/svg" viewBox="0 0 25 22" width="25" height="22">
	<title>video-svg</title>
	<defs>
		<clipPath clipPathUnits="userSpaceOnUse" id="cp1">
			<path d="m0 1h22.5v18h-22.5z"/>
		</clipPath>
	</defs>
	<style>
		.s0 { fill: #59321c } 
	</style>
	<g id="Clip-Path" clip-path="url(#cp1)">
		<g id="Layer">
			<path id="Layer" fill-rule="evenodd" class="s0" d="m14 11c1.2 0 2.3-0.4 3.2-1v8c0 0.5-0.4 0.9-0.8 0.9h-13.9c-0.4 0-0.8-0.4-0.8-0.9v-7.9c0.9 0.6 1.9 0.9 3 0.9 1.2 0 2.3-0.4 3.2-1.1h2.9c0.9 0.7 2 1.1 3.2 1.1zm8.2-0.5v7c0 0.7-0.7 1.1-1.3 0.7l-3-1.7v-4.9l3-1.8c0.6-0.3 1.3 0.1 1.3 0.7zm-3.5-4.8c0 2.5-2.1 4.6-4.7 4.6-2.6 0-4.7-2.1-4.7-4.6 0-2.6 2.1-4.7 4.7-4.7 2.6 0 4.7 2.1 4.7 4.7zm-2.7 0c0-1.1-0.9-2-2-2-1.1 0-2 0.9-2 2 0 1.1 0.9 2 2 2 1.1 0 2-0.9 2-2zm-6.7 0c0 2.5-2 4.6-4.6 4.6-2.6 0-4.7-2.1-4.7-4.6 0-2.6 2.1-4.7 4.7-4.7 2.6 0 4.6 2.1 4.6 4.7zm-2.6 0c0-1.1-0.9-2-2-2-1.1 0-2 0.9-2 2 0 1.1 0.9 2 2 2 1.1 0 2-0.9 2-2z"/>
		</g>
	</g>
</svg>