<svg xmlns="http://www.w3.org/2000/svg" xmlns:xlink="http://www.w3.org/1999/xlink" width="500" zoomAndPan="magnify" viewBox="0 0 375 374.999991" height="500" preserveAspectRatio="xMidYMid meet" version="1.0"><defs><clipPath id="426a99699b"><path d="M 114.25 221.730469 L 172.183594 221.730469 L 172.183594 317.082031 L 114.25 317.082031 Z M 114.25 221.730469 " clip-rule="nonzero"/></clipPath><clipPath id="b6d104919a"><path d="M 230.433594 127.191406 L 333.136719 127.191406 L 333.136719 179.644531 L 230.433594 179.644531 Z M 230.433594 127.191406 " clip-rule="nonzero"/></clipPath></defs><path fill="#ff953f" d="M 255.078125 210.113281 C 239.28125 227.257812 202.726562 224.179688 184.632812 219.179688 C 181.269531 218.257812 178.554688 217.261719 176.722656 216.335938 C 160.765625 208.167969 150.328125 192.480469 140.632812 177.464844 L 111.871094 132.988281 C 105.285156 122.832031 95.867188 109.945312 100.320312 96.9375 C 102.3125 90.921875 107.464844 86.019531 113.5625 84.304688 C 124.8125 81.132812 136.691406 88.679688 143.042969 98.464844 C 149.378906 108.253906 151.789062 119.960938 155.664062 130.953125 C 170.53125 173.160156 210.773438 203.125 255.078125 210.113281 " fill-opacity="1" fill-rule="nonzero"/><path fill="#f1721b" d="M 176.308594 269.4375 C 169.371094 273.050781 158.492188 272.886719 149.703125 269.785156 C 118.414062 258.773438 95.261719 244.125 71.28125 221.265625 C 63.996094 214.324219 58.40625 206.523438 54.324219 198.378906 C 51.515625 192.804688 49.40625 187.089844 47.945312 181.351562 C 42.214844 159.066406 46.160156 136.855469 56.226562 124.289062 C 56.710938 123.6875 57.222656 123.109375 57.734375 122.554688 C 50.960938 133.175781 57.6875 152.980469 63.625 164.089844 C 69.5625 175.195312 79.746094 183.476562 90.648438 189.84375 C 101.527344 196.230469 113.285156 200.925781 124.441406 206.828125 C 146.546875 218.464844 177.976562 231.074219 182.894531 255.511719 C 184.285156 262.3125 181.316406 266.871094 176.308594 269.4375 " fill-opacity="1" fill-rule="nonzero"/><g clip-path="url(#426a99699b)"><path fill="#ffe6d9" d="M 172.121094 317.082031 C 155.59375 310.1875 135.824219 302.738281 118.054688 300.390625 C 114.4375 282.820312 113.398438 264.742188 114.992188 246.890625 C 115.019531 246.535156 115.042969 246.207031 115.09375 245.851562 C 115.777344 237.925781 117.042969 230.074219 118.789062 222.296875 C 118.839844 222.144531 118.839844 221.96875 118.867188 221.792969 C 124.308594 226.03125 130.230469 229.921875 136.507812 233.355469 C 136.582031 233.40625 136.683594 233.457031 136.761719 233.480469 C 138.480469 234.441406 140.253906 235.351562 142.050781 236.207031 C 148.503906 239.363281 155.238281 241.992188 162.046875 243.960938 C 162.121094 244.71875 163.261719 254.96875 163.742188 259.285156 C 165.917969 278.703125 168.296875 297.1875 172.121094 317.082031 " fill-opacity="1" fill-rule="nonzero"/></g><path fill="#ffd0c0" d="M 163.742188 259.285156 C 163.667969 259.234375 163.617188 259.210938 163.5625 259.160156 C 147.59375 247.292969 134.886719 246.914062 115.09375 245.851562 C 115.777344 237.925781 117.042969 230.074219 118.789062 222.296875 C 118.839844 222.144531 118.839844 221.96875 118.867188 221.792969 C 124.308594 226.03125 130.230469 229.921875 136.507812 233.355469 C 136.582031 233.40625 136.683594 233.457031 136.761719 233.480469 C 138.480469 234.441406 140.253906 235.351562 142.050781 236.207031 C 148.503906 239.363281 155.238281 241.992188 162.046875 243.960938 C 162.121094 244.71875 163.261719 254.96875 163.742188 259.285156 " fill-opacity="1" fill-rule="nonzero"/><g clip-path="url(#b6d104919a)"><path fill="#ffe6d9" d="M 333.136719 178.136719 C 323.761719 162.90625 313.339844 144.570312 308.277344 127.417969 C 290.3125 126.558594 272.246094 128.320312 254.8125 132.644531 C 254.464844 132.722656 254.144531 132.796875 253.800781 132.902344 C 246.054688 134.796875 238.46875 137.257812 231.039062 140.175781 C 230.894531 140.25 230.71875 140.273438 230.550781 140.328125 C 235.589844 145.035156 240.351562 150.277344 244.722656 155.933594 C 244.78125 156 244.847656 156.09375 244.882812 156.164062 C 246.097656 157.714844 247.273438 159.320312 248.402344 160.957031 C 252.519531 166.835938 256.160156 173.066406 259.160156 179.472656 C 259.921875 179.429688 270.25 178.972656 274.601562 178.78125 C 294.167969 177.9375 312.839844 177.433594 333.136719 178.136719 " fill-opacity="1" fill-rule="nonzero"/></g><path fill="#ffd0c0" d="M 274.601562 178.78125 C 274.539062 178.71875 274.503906 178.671875 274.449219 178.628906 C 260.234375 164.714844 257.902344 152.25 253.800781 132.902344 C 246.054688 134.796875 238.46875 137.257812 231.039062 140.175781 C 230.894531 140.25 230.71875 140.273438 230.550781 140.328125 C 235.589844 145.035156 240.351562 150.277344 244.722656 155.933594 C 244.78125 156 244.847656 156.09375 244.882812 156.164062 C 246.097656 157.714844 247.273438 159.320312 248.402344 160.957031 C 252.519531 166.835938 256.160156 173.066406 259.160156 179.472656 C 259.921875 179.429688 270.25 178.972656 274.601562 178.78125 " fill-opacity="1" fill-rule="nonzero"/><path fill="#f1721b" d="M 184.632812 219.179688 C 181.269531 218.257812 178.554688 217.261719 176.722656 216.335938 C 160.765625 208.167969 150.328125 192.480469 140.632812 177.464844 C 139.355469 175.496094 138.082031 173.507812 136.804688 171.539062 C 132.699219 163.207031 128.824219 154.765625 125.117188 146.203125 C 121.984375 139.003906 113.914062 128.871094 114.652344 120.65625 C 115.652344 109.410156 127.6875 108.023438 132.976562 117.046875 C 140.957031 130.675781 144.691406 146.570312 151.234375 160.964844 C 158.746094 177.484375 168.074219 204.210938 181.480469 216.476562 C 182.546875 217.445312 183.589844 218.347656 184.632812 219.179688 " fill-opacity="1" fill-rule="nonzero"/><path fill="#ff953f" d="M 176.308594 269.4375 C 176.144531 269.347656 175.757812 269.253906 175.867188 269.117188 C 186.472656 255.511719 141.308594 233.171875 112.03125 225.824219 C 80.761719 217.972656 66.570312 207.289062 52.328125 191.691406 C 50.566406 188.199219 49.105469 184.75 47.945312 181.351562 C 42.214844 159.066406 46.160156 136.855469 56.226562 124.289062 C 56.710938 123.6875 57.222656 123.109375 57.734375 122.554688 C 50.960938 133.175781 57.6875 152.980469 63.625 164.089844 C 69.5625 175.195312 79.746094 183.476562 90.648438 189.84375 C 101.527344 196.230469 113.285156 200.925781 124.441406 206.828125 C 146.546875 218.464844 177.976562 231.074219 182.894531 255.511719 C 184.285156 262.3125 181.316406 266.871094 176.308594 269.4375 " fill-opacity="1" fill-rule="nonzero"/><path fill="#ffbd5f" d="M 250.136719 213.90625 C 238.167969 217.746094 214.394531 213.441406 192.472656 205.644531 C 180.226562 201.273438 171.414062 192.964844 164.617188 182.53125 C 163.574219 180.933594 162.574219 179.292969 161.625 177.601562 C 151.394531 159.390625 146.058594 136.113281 139.242188 115.796875 C 137.082031 109.316406 135.113281 102.46875 130.355469 97.585938 C 125.625 92.683594 117.019531 90.691406 112.03125 95.34375 C 108.230469 98.859375 107.878906 104.96875 109.761719 109.828125 C 111.617188 114.664062 115.257812 118.574219 118.714844 122.460938 C 135.507812 141.320312 149.5625 162.609375 160.441406 185.375 C 161.949219 188.5 163.363281 191.648438 164.757812 194.839844 C 165.707031 197.0625 166.65625 199.328125 167.5625 201.597656 C 170.855469 209.855469 173.777344 218.234375 176.238281 226.769531 C 178.996094 236.210938 181.222656 245.816406 182.894531 255.511719 C 157.679688 227.652344 126.785156 225.777344 103.195312 215.386719 C 78.398438 204.417969 60.167969 200 50.589844 174.6875 C 43.214844 155.15625 48.570312 132.6875 59.632812 114.964844 C 60.65625 113.34375 61.769531 111.515625 62.953125 109.527344 C 71.859375 94.742188 85.519531 71.695312 99.367188 67.019531 C 127.410156 57.582031 153.621094 73.523438 223.4375 112.558594 C 226.871094 114.476562 230.074219 116.929688 233.042969 119.777344 C 260.667969 146.292969 267.789062 208.238281 250.136719 213.90625 " fill-opacity="1" fill-rule="nonzero"/><path fill="#ffcc7b" d="M 240.117188 188.664062 C 231.070312 199.351562 200.246094 199.304688 186.976562 194.839844 C 177.421875 191.625 170.324219 187.644531 164.617188 182.53125 C 163.574219 180.933594 162.574219 179.292969 161.625 177.601562 C 151.394531 159.390625 146.058594 136.113281 139.242188 115.796875 C 137.082031 109.316406 135.113281 102.46875 130.355469 97.585938 C 125.625 92.683594 117.019531 90.691406 112.03125 95.34375 C 108.230469 98.859375 107.878906 104.96875 109.761719 109.828125 C 111.617188 114.664062 115.257812 118.574219 118.714844 122.460938 C 135.507812 141.320312 149.5625 162.609375 160.441406 185.375 C 161.949219 188.5 163.363281 191.648438 164.757812 194.839844 C 165.707031 197.0625 166.65625 199.328125 167.5625 201.597656 C 170.855469 209.855469 173.777344 218.234375 176.238281 226.769531 C 173.011719 228.761719 159.558594 219.273438 155.476562 217.679688 C 146.5 214.183594 137.128906 211.800781 128.085938 208.46875 C 106.792969 200.625 87.285156 186.878906 74.898438 167.882812 C 63.742188 150.828125 58.824219 129.378906 62.953125 109.527344 C 71.859375 94.742188 85.519531 71.695312 99.367188 67.019531 C 127.410156 57.582031 153.621094 73.523438 223.4375 112.558594 C 226.871094 114.476562 230.074219 116.929688 233.042969 119.777344 C 238.261719 129.449219 241.648438 140.164062 244.175781 150.921875 C 247.167969 163.71875 248.605469 178.621094 240.117188 188.664062 " fill-opacity="1" fill-rule="nonzero"/><path fill="#ffd78f" d="M 160.441406 185.375 C 161.183594 187.597656 161.855469 189.84375 162.484375 192.085938 L 103.683594 120.519531 C 99.808594 115.796875 95.867188 110.9375 94.035156 105.128906 C 91.644531 97.519531 93.429688 88.722656 98.601562 82.617188 C 103.777344 76.53125 112.195312 73.3125 120.128906 74.425781 C 129.707031 75.765625 137.6875 82.871094 142.488281 91.246094 C 147.3125 99.601562 149.449219 109.179688 151.535156 118.597656 L 165.148438 180.078125 C 163.921875 179.3125 162.738281 178.503906 161.625 177.601562 C 151.394531 159.390625 146.058594 136.113281 139.242188 115.796875 C 137.082031 109.316406 135.113281 102.46875 130.355469 97.585938 C 125.625 92.683594 117.019531 90.691406 112.03125 95.34375 C 108.230469 98.859375 107.878906 104.96875 109.761719 109.828125 C 111.617188 114.664062 115.257812 118.574219 118.714844 122.460938 C 135.507812 141.320312 149.5625 162.609375 160.441406 185.375 " fill-opacity="1" fill-rule="nonzero"/></svg>