<svg xmlns="http://www.w3.org/2000/svg" xmlns:xlink="http://www.w3.org/1999/xlink" width="500" zoomAndPan="magnify" viewBox="0 0 375 374.999991" height="500" preserveAspectRatio="xMidYMid meet" version="1.0"><defs><clipPath id="1ce7f0410d"><path d="M 137 90 L 295.808594 90 L 295.808594 202 L 137 202 Z M 137 90 " clip-rule="nonzero"/></clipPath><clipPath id="f8fef73219"><path d="M 84.785156 179 L 243.570312 179 L 243.570312 268.886719 L 84.785156 268.886719 Z M 84.785156 179 " clip-rule="nonzero"/></clipPath><clipPath id="45083fe9c6"><path d="M 142 88 L 295.808594 88 L 295.808594 191 L 142 191 Z M 142 88 " clip-rule="nonzero"/></clipPath><clipPath id="4d7374a41a"><path d="M 79.1875 79.539062 L 295.796875 79.539062 L 295.796875 259.128906 L 79.1875 259.128906 Z M 79.1875 79.539062 " clip-rule="nonzero"/></clipPath><clipPath id="e13e18fd81"><path d="M 79.1875 156.574219 L 197.433594 156.574219 L 197.433594 242.035156 L 79.1875 242.035156 Z M 79.1875 156.574219 " clip-rule="nonzero"/></clipPath><clipPath id="aa88db3b9c"><path d="M 159.964844 257.253906 L 237.484375 257.253906 L 237.484375 268.886719 L 159.964844 268.886719 Z M 159.964844 257.253906 " clip-rule="nonzero"/></clipPath><clipPath id="7af1337b60"><path d="M 83 79.140625 L 262 79.140625 L 262 218 L 83 218 Z M 83 79.140625 " clip-rule="nonzero"/></clipPath><clipPath id="64a6c8a214"><path d="M 126 79.140625 L 214 79.140625 L 214 188 L 126 188 Z M 126 79.140625 " clip-rule="nonzero"/></clipPath></defs><g clip-path="url(#1ce7f0410d)"><path fill="#ff953f" d="M 137.507812 113.902344 C 137.765625 122.175781 141.300781 130.011719 145.449219 137.210938 C 159.257812 161.210938 175.886719 186.007812 201.304688 196.175781 C 202.480469 196.664062 203.660156 197.097656 204.890625 197.507812 C 218.160156 201.964844 243.320312 202.605469 265.023438 198.019531 C 277.21875 195.457031 288.335938 191.257812 295.589844 185.160156 C 295.589844 185.160156 271.324219 180.5 264.484375 177.347656 C 254.109375 172.609375 244.472656 166.359375 235.609375 159.238281 C 217.804688 144.972656 202.941406 127.425781 188.007812 110.1875 C 182.855469 104.269531 177.578125 98.25 170.738281 94.40625 C 163.921875 90.539062 155.1875 89.15625 148.292969 92.84375 C 140.964844 96.765625 137.277344 105.601562 137.507812 113.902344 " fill-opacity="1" fill-rule="nonzero"/></g><g clip-path="url(#f8fef73219)"><path fill="#ff953f" d="M 100.894531 226.453125 C 112.757812 239.003906 128.796875 246.816406 145.066406 252.65625 C 149.140625 254.117188 154.238281 255.730469 159.976562 257.394531 C 185.339844 264.671875 223.03125 272.355469 237.453125 267.207031 C 241.65625 265.695312 243.886719 263.109375 243.246094 259.113281 C 243.246094 259.113281 242.269531 254.964844 232.867188 247.6875 C 223.542969 240.464844 212.191406 236.316406 200.714844 233.523438 C 173.785156 226.914062 144.449219 226.835938 120.777344 212.441406 C 106.941406 204.015625 96.308594 191.414062 85.90625 179.015625 C 81.9375 195.816406 89.03125 213.875 100.894531 226.453125 " fill-opacity="1" fill-rule="nonzero"/></g><path fill="#f1721b" d="M 159.695312 145.046875 C 165.921875 163.3125 177.78125 179.679688 193.386719 191.054688 C 195.921875 192.898438 198.5625 194.613281 201.304688 196.175781 C 202.480469 196.664062 203.660156 197.097656 204.890625 197.507812 C 218.160156 201.964844 243.320312 202.605469 265.023438 198.019531 C 230.253906 193.972656 202.03125 174.644531 181.804688 145.929688 C 174.011719 134.863281 164.921875 116.027344 154.902344 119.867188 C 146.476562 123.121094 157.519531 138.695312 159.695312 145.046875 " fill-opacity="1" fill-rule="nonzero"/><g clip-path="url(#45083fe9c6)"><path fill="#ffab48" d="M 162.3125 115.753906 C 167.632812 119.15625 171.414062 124.433594 175.199219 129.488281 C 189.496094 148.59375 206.050781 166.609375 226.878906 178.261719 C 247.707031 189.917969 273.410156 194.546875 295.796875 186.277344 C 275.800781 178.78125 254.976562 173.476562 235.433594 164.867188 C 215.886719 156.261719 197.222656 143.804688 186.089844 125.585938 C 180.183594 115.917969 176.496094 104.8125 169.078125 96.25 C 166.328125 93.078125 163.003906 90.253906 159.023438 88.917969 C 155.042969 87.578125 150.332031 87.9375 147.070312 90.578125 C 143.753906 93.261719 142.441406 97.832031 142.679688 102.089844 C 142.894531 105.945312 143.574219 111.816406 147.605469 113.128906 C 149.394531 113.710938 152.46875 112.546875 154.519531 112.828125 C 157.277344 113.203125 159.972656 114.257812 162.3125 115.753906 " fill-opacity="1" fill-rule="nonzero"/></g><g clip-path="url(#4d7374a41a)"><path fill="#ffbd5f" d="M 87.34375 201.402344 C 87.804688 202.375 88.316406 203.324219 88.851562 204.246094 C 100.125 224.121094 119.675781 238.570312 141.144531 246.433594 C 162.617188 254.296875 185.957031 256.011719 208.757812 254.476562 C 220.082031 253.734375 234.25 252.195312 243.246094 259.113281 C 240.964844 231.21875 226.769531 205.601562 209.628906 183.496094 C 199.175781 170 187.570312 157.496094 176.167969 144.792969 C 169.6875 137.59375 163.308594 130.320312 157.234375 122.789062 C 156.441406 121.816406 155.671875 120.84375 154.902344 119.867188 C 152.085938 116.257812 149.265625 112.464844 148.214844 108.011719 C 147.191406 103.550781 148.371094 98.277344 152.1875 95.765625 C 153.058594 95.203125 154.007812 94.792969 155.007812 94.585938 C 158.824219 93.742188 163.207031 95.378906 166.203125 98.222656 C 166.433594 98.402344 166.667969 98.628906 166.894531 98.863281 C 170.679688 102.792969 172.351562 108.214844 174.351562 113.285156 C 182.984375 135.035156 198.433594 153.988281 217.929688 166.898438 C 219.496094 167.949219 221.082031 168.972656 222.695312 169.921875 C 244.449219 182.804688 270.503906 188.261719 295.589844 185.160156 C 294.921875 160.1875 282.164062 138.515625 264.074219 121.253906 C 254.875 112.492188 244.398438 105.269531 233.203125 99.300781 C 224.722656 94.765625 215.832031 90.949219 206.761719 87.722656 C 204.222656 86.800781 201.660156 85.929688 199.097656 85.109375 C 194.078125 83.523438 188.929688 82.0625 183.726562 81.0625 C 174.964844 79.347656 166.074219 78.832031 157.414062 80.832031 C 144.785156 83.804688 134.023438 91.820312 123.671875 99.632812 C 109.121094 110.648438 94.078125 122.226562 85.804688 138.492188 C 85.753906 138.621094 85.675781 138.746094 85.625 138.902344 C 84.601562 140.898438 83.730469 142.949219 82.960938 145.023438 C 81.578125 148.8125 80.578125 152.707031 79.9375 156.679688 C 77.503906 171.714844 80.320312 187.722656 87.34375 201.402344 " fill-opacity="1" fill-rule="nonzero"/></g><path fill="#ffab48" d="M 183.726562 81.0625 C 196.613281 85.289062 209.144531 90.335938 220.902344 97.046875 C 243.21875 109.75 262.769531 129.296875 269.992188 153.9375 C 271.324219 158.523438 272.273438 163.363281 275.039062 167.257812 C 276.21875 168.921875 277.832031 170.382812 279.675781 171.332031 C 282.878906 173.019531 285.683594 169.71875 284.800781 166.207031 C 277.183594 135.886719 254.851562 113.308594 233.203125 99.300781 C 222.339844 93.484375 210.808594 88.875 199.097656 85.109375 C 194.078125 83.523438 188.929688 82.0625 183.726562 81.0625 " fill-opacity="1" fill-rule="nonzero"/><g clip-path="url(#e13e18fd81)"><path fill="#ffab48" d="M 87.34375 201.402344 C 87.546875 201.734375 87.777344 202.066406 88.035156 202.402344 C 104.789062 224.96875 132.742188 240.03125 160.796875 241.847656 C 170.585938 242.488281 180.5 241.285156 189.851562 238.339844 C 192.898438 237.367188 196.257812 235.804688 197.074219 232.703125 C 197.972656 229.195312 194.742188 225.738281 191.210938 224.917969 C 187.671875 224.070312 184.007812 225.070312 180.472656 225.839844 C 152.496094 231.859375 121.675781 222.378906 101.921875 201.683594 C 90.210938 189.414062 82.601562 173.429688 79.9375 156.679688 C 77.503906 171.714844 80.320312 187.722656 87.34375 201.402344 " fill-opacity="1" fill-rule="nonzero"/></g><g clip-path="url(#aa88db3b9c)"><path fill="#f1721b" d="M 159.976562 257.394531 C 185.339844 264.671875 223.03125 272.355469 237.453125 267.207031 C 236.917969 265.851562 235.96875 264.59375 234.789062 263.773438 C 231.945312 261.800781 228.308594 261.546875 224.847656 261.316406 L 159.976562 257.394531 " fill-opacity="1" fill-rule="nonzero"/></g><g clip-path="url(#7af1337b60)"><path fill="#ffcc7b" d="M 83.574219 150.609375 C 99.894531 215.488281 180.472656 225.839844 197.230469 211.777344 C 203.453125 206.523438 206.554688 199.710938 204.199219 191.898438 C 203.070312 188.109375 194.667969 175.429688 185.007812 161.570312 C 174.835938 146.945312 163.230469 130.984375 157.234375 122.789062 C 156.441406 121.816406 155.671875 120.84375 154.902344 119.867188 C 152.085938 116.257812 149.265625 112.464844 148.214844 108.011719 C 147.191406 103.550781 148.371094 98.277344 152.1875 95.765625 C 153.058594 95.203125 154.007812 94.792969 155.007812 94.585938 C 155.238281 94.535156 155.46875 94.488281 155.722656 94.457031 C 159.371094 94.023438 163.382812 95.5625 166.203125 98.222656 C 166.433594 98.402344 166.667969 98.628906 166.894531 98.863281 C 170.679688 102.792969 172.351562 108.214844 174.351562 113.285156 C 177.835938 122.019531 185.007812 134.316406 193.640625 145.152344 C 206.144531 160.828125 224.773438 170.765625 244.832031 171.074219 C 247.191406 171.097656 249.472656 170.996094 251.546875 170.742188 C 258.308594 169.871094 262.871094 165.769531 261.382812 159.136719 C 255.671875 133.726562 229.410156 108.292969 206.761719 87.722656 C 204.222656 86.800781 201.660156 85.929688 199.097656 85.109375 C 194.078125 83.523438 188.929688 82.0625 183.726562 81.0625 C 176.964844 79.730469 170.125 79.140625 163.359375 79.859375 C 163.359375 79.859375 163.332031 79.832031 163.308594 79.859375 C 161.335938 80.0625 159.363281 80.371094 157.414062 80.832031 C 149.320312 82.726562 141.964844 86.722656 135.023438 91.386719 C 131.152344 94.023438 127.386719 96.839844 123.671875 99.632812 C 109.121094 110.648438 94.078125 122.226562 85.804688 138.492188 C 85.753906 138.621094 85.675781 138.746094 85.625 138.902344 C 84.550781 141.488281 83.140625 148.863281 83.574219 150.609375 " fill-opacity="1" fill-rule="nonzero"/></g><g clip-path="url(#64a6c8a214)"><path fill="#ffd78f" d="M 132.84375 133.417969 C 144.425781 151.605469 159.796875 168.308594 174.761719 183.394531 C 178.449219 187.109375 182.960938 189.3125 186.570312 185.597656 C 188.519531 183.648438 187.546875 180.652344 186.90625 178.21875 C 181.625 158.1875 147.753906 133.597656 143.859375 106.140625 C 142.65625 97.585938 154.929688 79.550781 169.097656 95.996094 C 172.609375 101.144531 174.683594 103.910156 176.398438 110.777344 C 180.242188 126.144531 194.796875 140.695312 208.632812 145.355469 C 213.730469 147.097656 214.753906 144.585938 213.449219 142.15625 C 203.96875 124.53125 197.304688 97.457031 180.191406 86.234375 C 174.53125 82.546875 168.917969 80.421875 163.359375 79.859375 C 163.359375 79.859375 163.332031 79.832031 163.308594 79.859375 C 161.335938 80.0625 159.363281 80.371094 157.414062 80.832031 C 149.320312 82.726562 141.964844 86.722656 135.023438 91.386719 C 130.949219 96.457031 128.566406 102.9375 127.308594 109.238281 C 125.566406 118.050781 128 125.8125 132.84375 133.417969 " fill-opacity="1" fill-rule="nonzero"/></g></svg>