<svg xmlns="http://www.w3.org/2000/svg" xmlns:xlink="http://www.w3.org/1999/xlink" width="500" zoomAndPan="magnify" viewBox="0 0 375 374.999991" height="500" preserveAspectRatio="xMidYMid meet" version="1.0"><defs><clipPath id="914c6f5f5b"><path d="M 248 142.382812 L 354.855469 142.382812 L 354.855469 230 L 248 230 Z M 248 142.382812 " clip-rule="nonzero"/></clipPath><clipPath id="cedf540b35"><path d="M 248 174 L 354.855469 174 L 354.855469 230 L 248 230 Z M 248 174 " clip-rule="nonzero"/></clipPath><clipPath id="dc4968eb47"><path d="M 133.378906 232.484375 L 144.820312 232.484375 L 144.820312 248.199219 L 133.378906 248.199219 Z M 133.378906 232.484375 " clip-rule="nonzero"/></clipPath></defs><path fill="#ff953f" d="M 135.996094 163.175781 C 160.894531 186.804688 144.914062 208.605469 128.066406 234.382812 C 127.171875 220.363281 125.53125 212.9375 120.433594 203.296875 C 115.335938 193.65625 110.660156 185.375 105.257812 175.902344 C 101.570312 169.429688 94.164062 153.527344 100.820312 146.730469 C 108.070312 139.332031 128.546875 156.105469 135.996094 163.175781 " fill-opacity="1" fill-rule="nonzero"/><path fill="#f1721b" d="M 144.929688 197.621094 C 142.621094 205.136719 138.046875 212.851562 133.179688 221.070312 C 132.742188 221.816406 131.617188 221.550781 131.539062 220.695312 C 130.761719 212.433594 129.574219 207.195312 126.796875 201.316406 C 126.453125 200.570312 126.078125 199.820312 125.6875 199.058594 C 121.785156 191.527344 118.214844 185.058594 114.09375 177.652344 C 113.4375 176.46875 112.421875 174.738281 111.316406 172.679688 L 111.316406 172.664062 C 107.710938 165.945312 103.121094 155.90625 106.835938 151.742188 C 111.878906 146.070312 129.496094 160.472656 135.878906 166.507812 L 135.894531 166.507812 C 136.175781 166.773438 136.410156 167.003906 136.644531 167.222656 C 147.082031 177.402344 148.144531 187.304688 144.929688 197.621094 " fill-opacity="1" fill-rule="nonzero"/><path fill="#ffbd5f" d="M 128.066406 234.382812 C 80.484375 233.105469 48.835938 217.597656 26.023438 204.378906 C 22.074219 202.085938 22.652344 198.125 26.351562 193.214844 C 27.082031 192.25 27.941406 191.234375 28.925781 190.191406 C 41.910156 176.300781 74.945312 156.816406 102.519531 145.261719 C 102.644531 145.199219 102.785156 145.140625 102.910156 145.09375 C 96.121094 155.523438 101.429688 164.5625 106.328125 174.027344 C 106.875 175.070312 107.4375 176.113281 108.015625 177.144531 C 112.601562 185.453125 118.050781 193.292969 121.808594 202.007812 C 126.085938 211.890625 128.550781 223.613281 128.066406 234.382812 " fill-opacity="1" fill-rule="nonzero"/><path fill="#ffcc7b" d="M 112.914062 218.390625 C 110.292969 221.714844 87.851562 224.425781 35.527344 200.089844 C 30.8125 197.894531 28.910156 194.386719 28.925781 190.191406 C 41.910156 176.300781 74.945312 156.816406 102.519531 145.261719 C 84.109375 155.472656 121.417969 207.589844 112.914062 218.390625 " fill-opacity="1" fill-rule="nonzero"/><path fill="#ffd78f" d="M 90.746094 154.402344 C 95.226562 152.566406 94.570312 158.613281 95.1875 162.5625 C 95.964844 167.515625 96.859375 169.398438 89.546875 173.25 C 82.464844 176.976562 38.699219 197.011719 33.636719 194.011719 C 24.960938 188.871094 90.746094 154.402344 90.746094 154.402344 " fill-opacity="1" fill-rule="nonzero"/><path fill="#ffab48" d="M 128.066406 234.382812 C 80.484375 233.105469 48.835938 217.597656 26.023438 204.378906 C 22.074219 202.085938 22.652344 198.125 26.351562 193.214844 C 20.355469 205.765625 56.082031 220.886719 95.375 228.554688 C 103.234375 230.089844 115.789062 232.394531 120.878906 226.207031 C 125.980469 220.003906 123.316406 205.765625 108.015625 177.144531 C 112.601562 185.453125 118.050781 193.292969 121.808594 202.007812 C 126.085938 211.890625 128.550781 223.613281 128.066406 234.382812 " fill-opacity="1" fill-rule="nonzero"/><path fill="#ff953f" d="M 244.921875 158.183594 C 218.476562 180.070312 232.941406 202.902344 248 229.761719 C 249.84375 215.832031 251.984375 208.542969 257.726562 199.269531 C 263.464844 189.992188 268.691406 182.050781 274.726562 172.964844 C 278.84375 166.757812 287.3125 151.394531 281.132812 144.164062 C 274.402344 136.289062 252.835938 151.636719 244.921875 158.183594 " fill-opacity="1" fill-rule="nonzero"/><path fill="#f1721b" d="M 271.429688 165.074219 C 269.320312 168.84375 267.027344 172.226562 265.796875 174.113281 C 261.175781 181.222656 257.167969 187.425781 252.765625 194.691406 C 252.25 195.535156 251.765625 196.359375 251.332031 197.1875 C 248.289062 202.734375 246.773438 207.832031 245.460938 215.878906 C 245.335938 216.71875 244.183594 216.90625 243.792969 216.144531 C 240.109375 208.800781 236.597656 201.832031 234.539062 195.160156 C 230.917969 183.4375 231.773438 172.585938 243.992188 162.1875 C 244.027344 162.171875 244.042969 162.140625 244.070312 162.125 C 250.144531 156.964844 269.960938 142.515625 274.785156 148.75 C 277.5 152.273438 274.722656 159.148438 271.429688 165.074219 " fill-opacity="1" fill-rule="nonzero"/><g clip-path="url(#914c6f5f5b)"><path fill="#ffbd5f" d="M 351.847656 206.75 C 328.933594 218.023438 297.585938 230.894531 252.417969 229.917969 C 250.964844 229.882812 249.480469 229.828125 248 229.773438 C 248.25 218.996094 251.507812 207.464844 256.445312 197.894531 C 259.164062 192.625 262.5 187.726562 265.882812 182.863281 C 267.925781 179.941406 269.972656 177.015625 271.894531 174.023438 C 272.542969 173.035156 273.175781 172.03125 273.789062 171.027344 C 279.320312 161.917969 285.230469 153.257812 279.164062 142.390625 C 279.285156 142.445312 279.421875 142.519531 279.542969 142.589844 C 296.117188 150.902344 314.574219 162.390625 329.074219 173.4375 C 334.636719 177.675781 339.625 181.859375 343.691406 185.757812 L 343.6875 185.773438 C 346.113281 188.082031 348.214844 190.316406 349.917969 192.402344 C 350.828125 193.511719 351.613281 194.578125 352.28125 195.59375 C 355.636719 200.742188 355.945312 204.734375 351.847656 206.75 " fill-opacity="1" fill-rule="nonzero"/></g><g clip-path="url(#cedf540b35)"><path fill="#ffab48" d="M 351.847656 206.75 C 328.933594 218.023438 297.585938 230.894531 252.417969 229.917969 C 250.964844 229.882812 249.480469 229.828125 248 229.773438 C 248.25 218.996094 251.507812 207.464844 256.445312 197.894531 C 260.789062 189.457031 266.753906 182 271.894531 174.023438 C 254.675781 201.539062 251.046875 215.558594 255.71875 222.097656 C 260.375 228.617188 350.359375 200.164062 343.6875 185.773438 C 346.113281 188.082031 348.214844 190.316406 349.917969 192.402344 C 350.828125 193.511719 351.613281 194.578125 352.28125 195.59375 C 355.636719 200.742188 355.945312 204.734375 351.847656 206.75 " fill-opacity="1" fill-rule="nonzero"/></g><path fill="#ffcc7b" d="M 329.074219 173.4375 C 328.429688 179.722656 324.460938 185.859375 319.207031 189.691406 C 311.769531 195.105469 302.398438 196.984375 293.363281 198.714844 C 285.136719 200.296875 273.628906 201.890625 268.519531 193.292969 C 268.328125 192.96875 268.148438 192.636719 267.984375 192.292969 C 265.734375 187.660156 266.4375 182.140625 269.335938 177.882812 C 270.203125 176.605469 271.0625 175.320312 271.894531 174.023438 C 272.542969 173.035156 273.175781 172.03125 273.789062 171.027344 C 279.320312 161.917969 285.230469 153.257812 279.164062 142.390625 C 279.285156 142.445312 279.421875 142.519531 279.542969 142.589844 C 296.117188 150.902344 314.574219 162.390625 329.074219 173.4375 " fill-opacity="1" fill-rule="nonzero"/><path fill="#ffd78f" d="M 284.410156 151.824219 C 284.496094 149.949219 286.457031 148.726562 288.210938 149.414062 C 297.589844 153.082031 307.027344 160.941406 314.664062 166.761719 C 316.78125 168.378906 319 170.394531 318.402344 173.417969 C 317.992188 175.472656 316.328125 177.050781 314.332031 177.699219 C 310.335938 179.003906 306.488281 177.285156 302.78125 175.878906 C 299.679688 174.699219 296.21875 173.707031 293.097656 174.835938 C 290.441406 175.789062 288.53125 178.113281 287.050781 180.511719 C 285.566406 182.910156 284.355469 185.507812 282.441406 187.582031 C 280.222656 189.984375 273.847656 192.773438 271.773438 188.445312 C 270.230469 185.226562 272.503906 179.976562 274.191406 177.742188 C 275.542969 175.949219 283.984375 161.398438 284.410156 151.824219 " fill-opacity="1" fill-rule="nonzero"/><path fill="#ffe6d9" d="M 271.429688 165.074219 C 269.320312 168.84375 267.027344 172.226562 265.796875 174.113281 C 261.175781 181.222656 257.167969 187.425781 252.765625 194.691406 C 252.25 195.535156 251.765625 196.359375 251.332031 197.1875 C 246.476562 196.53125 240.859375 195.8125 234.539062 195.160156 C 224.832031 194.160156 213.453125 193.335938 200.800781 193.226562 C 187.644531 193.117188 173.066406 193.757812 157.445312 195.75 C 157.429688 195.769531 157.429688 195.75 157.429688 195.75 C 153.328125 196.28125 149.175781 196.90625 144.929688 197.621094 C 139.015625 198.652344 132.960938 199.867188 126.796875 201.316406 C 126.453125 200.570312 126.078125 199.820312 125.6875 199.058594 C 121.785156 191.527344 118.214844 185.058594 114.09375 177.652344 C 113.4375 176.46875 112.421875 174.738281 111.316406 172.679688 L 111.316406 172.492188 C 113.890625 171.714844 116.496094 170.980469 119.117188 170.292969 C 124.644531 168.828125 130.246094 167.582031 135.878906 166.507812 L 135.894531 166.507812 C 175.484375 158.898438 216.808594 159.976562 244.070312 162.125 C 254.542969 162.953125 262.957031 163.933594 268.402344 164.652344 C 269.539062 164.808594 270.554688 164.949219 271.429688 165.074219 " fill-opacity="1" fill-rule="nonzero"/><path fill="#ffd0c0" d="M 271.429688 165.074219 C 269.320312 168.84375 267.027344 172.226562 265.796875 174.113281 C 261.175781 181.222656 257.167969 187.425781 252.765625 194.691406 C 252.25 195.535156 251.765625 196.359375 251.332031 197.1875 C 246.476562 196.53125 240.859375 195.8125 234.539062 195.160156 C 224.832031 194.160156 213.453125 193.335938 200.800781 193.226562 C 203.203125 193.101562 205.605469 192.992188 208.007812 192.867188 C 212.675781 192.632812 217.371094 192.382812 221.992188 191.605469 C 235.363281 189.328125 247.410156 182.578125 258.085938 174.457031 C 261.519531 171.839844 264.890625 167.738281 268.402344 164.652344 C 269.539062 164.808594 270.554688 164.949219 271.429688 165.074219 " fill-opacity="1" fill-rule="nonzero"/><path fill="#ffd0c0" d="M 157.429688 195.75 C 153.328125 196.28125 149.175781 196.90625 144.929688 197.621094 C 139.015625 198.652344 132.960938 199.867188 126.796875 201.316406 C 126.453125 200.570312 126.078125 199.820312 125.6875 199.058594 C 121.785156 191.527344 118.214844 185.058594 114.09375 177.652344 C 113.4375 176.46875 112.421875 174.738281 111.316406 172.679688 L 111.316406 172.492188 C 113.890625 171.714844 116.496094 170.980469 119.117188 170.292969 C 127.453125 183.703125 141.871094 193.132812 157.429688 195.75 " fill-opacity="1" fill-rule="nonzero"/><path fill="#e88b72" d="M 157.628906 187.496094 C 158.222656 186.644531 158.492188 185.640625 158.441406 184.488281 C 158.394531 183.488281 158.273438 182.574219 158.070312 181.746094 C 157.867188 180.917969 157.617188 180.289062 157.339844 179.867188 C 157.078125 179.472656 156.820312 179.132812 156.5625 178.859375 C 156.308594 178.589844 156.09375 178.414062 155.910156 178.335938 L 155.640625 178.25 L 154.453125 178.304688 C 154.6875 180.800781 154.917969 184.394531 155.148438 189.085938 C 156.207031 188.882812 157.03125 188.351562 157.628906 187.496094 Z M 155.78125 174.910156 C 156.066406 174.292969 156.378906 173.539062 156.605469 172.652344 C 156.664062 172.410156 156.753906 172.101562 156.894531 171.722656 L 156.839844 170.582031 C 156.808594 169.929688 156.535156 169.3125 156.019531 168.726562 C 155.503906 168.140625 154.933594 167.863281 154.3125 167.894531 C 154 167.910156 153.863281 168.253906 153.894531 168.925781 C 153.964844 170.359375 154.0625 171.640625 154.152344 172.769531 C 154.265625 174.214844 154.296875 174.9375 154.394531 176.382812 C 154.960938 176.222656 155.414062 175.710938 155.78125 174.910156 Z M 153.230469 190.0625 C 153.160156 188.457031 153.023438 183.644531 152.957031 182.039062 C 152.894531 180.585938 152.082031 168.703125 152.078125 168.625 C 152.050781 168.058594 152.082031 167.535156 152.167969 167.050781 C 152.273438 166.460938 152.613281 166.148438 153.191406 166.121094 C 154.746094 166.042969 156.003906 166.472656 156.960938 167.410156 C 157.914062 168.34375 158.429688 169.617188 158.5 171.226562 C 158.546875 172.203125 158.324219 173.238281 157.84375 174.324219 C 157.363281 175.414062 156.773438 176.234375 156.070312 176.792969 C 157.386719 177.578125 158.378906 178.628906 159.042969 179.9375 C 159.707031 181.246094 160.074219 182.707031 160.144531 184.3125 C 160.175781 185.074219 159.957031 186.035156 159.484375 187.183594 C 158.914062 188.558594 158.105469 189.582031 157.035156 190.203125 C 156.402344 190.570312 155.6875 190.757812 154.902344 190.796875 L 154.773438 190.804688 C 153.769531 190.851562 153.253906 190.605469 153.230469 190.0625 " fill-opacity="1" fill-rule="nonzero"/><path fill="#e88b72" d="M 164.261719 190.148438 C 163.898438 190.046875 163.6875 189.757812 163.667969 189.257812 L 162.886719 170.316406 C 162.871094 169.949219 162.796875 169.375 162.621094 168.664062 C 162.457031 168.007812 162.335938 167.445312 162.316406 167.011719 C 162.316406 166.972656 162.316406 166.953125 162.3125 166.914062 C 162.664062 166.289062 162.925781 165.886719 163.097656 165.707031 C 163.410156 165.691406 163.824219 165.636719 164.328125 165.527344 C 164.789062 165.425781 165.199219 165.359375 165.554688 165.347656 C 165.910156 165.332031 166.261719 165.421875 166.601562 165.617188 C 166.945312 165.8125 167.121094 166.050781 167.128906 166.332031 C 167.15625 166.984375 166.65625 167.328125 165.632812 167.367188 L 165.167969 167.386719 C 165.035156 167.371094 164.878906 167.363281 164.699219 167.371094 C 164.5 167.378906 164.347656 167.398438 164.335938 167.417969 C 164.164062 167.71875 164.453125 169.046875 164.574219 170.085938 C 164.617188 170.449219 164.644531 170.632812 164.679688 170.996094 C 164.746094 171.710938 164.773438 172.070312 164.816406 172.785156 C 164.839844 173.199219 164.804688 173.832031 164.789062 174.683594 C 164.777344 175.414062 164.796875 175.777344 164.796875 176.511719 L 165.257812 176.394531 C 165.691406 176.246094 166.054688 176.167969 166.339844 176.15625 C 166.582031 176.148438 166.804688 176.230469 167.011719 176.410156 C 167.214844 176.585938 167.324219 176.792969 167.332031 177.03125 C 167.34375 177.292969 167.269531 177.53125 167.113281 177.742188 C 166.953125 177.957031 166.753906 178.066406 166.511719 178.074219 L 166.117188 178.058594 L 165.6875 178.074219 C 165.355469 178.089844 165.128906 178.175781 165.003906 178.332031 L 165.402344 188.402344 L 167.230469 188.234375 C 168.472656 188.1875 169.105469 188.449219 169.125 189.015625 L 169.128906 189.144531 C 169.007812 189.410156 168.777344 189.628906 168.433594 189.804688 C 168.09375 189.980469 167.757812 190.097656 167.433594 190.152344 C 167.003906 190.183594 166.789062 190.203125 166.359375 190.226562 C 165.953125 190.25 165.75 190.25 165.34375 190.269531 C 164.933594 190.285156 164.5625 190.234375 164.261719 190.148438 " fill-opacity="1" fill-rule="nonzero"/><path fill="#e88b72" d="M 183.617188 189.671875 C 183.46875 189.46875 183.394531 189.214844 183.386719 188.910156 C 183.277344 184.367188 183.097656 180.53125 182.847656 177.402344 C 182.316406 177.328125 181.941406 177.292969 181.722656 177.300781 C 180.820312 177.324219 179.875 177.433594 179.78125 177.578125 C 179.492188 178.023438 179.976562 180.644531 180.222656 183.082031 C 180.480469 185.667969 180.601562 187.535156 180.632812 188.621094 C 180.636719 188.839844 180.578125 189.042969 180.449219 189.230469 C 180.324219 189.417969 180.164062 189.515625 179.96875 189.519531 C 179.683594 189.527344 179.410156 189.035156 179.144531 188.039062 C 178.753906 186.574219 178.386719 183.476562 178.027344 178.769531 C 177.789062 175.582031 177.667969 172.082031 177.503906 168.472656 C 177.472656 167.808594 177.425781 166.839844 177.390625 165.601562 C 177.378906 165.210938 177.5625 165.007812 177.941406 165 C 178.160156 164.992188 178.390625 165.039062 178.628906 165.144531 C 178.863281 165.246094 179.042969 165.359375 179.15625 165.488281 C 179.085938 166.1875 179.0625 167.003906 179.089844 167.9375 C 179.113281 168.851562 179.203125 169.972656 179.3125 171.261719 C 179.433594 172.738281 179.484375 173.890625 179.5 174.648438 L 179.519531 175.238281 C 179.5 175.410156 179.496094 175.617188 179.5 175.855469 C 179.507812 176.074219 179.535156 176.355469 179.589844 176.703125 C 179.722656 176.699219 179.941406 176.683594 180.25 176.652344 C 180.558594 176.625 180.871094 176.574219 181.171875 176.53125 C 181.878906 176.433594 182.4375 176.402344 182.789062 176.394531 C 182.746094 174.5 182.386719 165.171875 182.378906 164.816406 C 182.667969 164.808594 182.925781 164.851562 183.148438 164.945312 C 183.375 165.039062 183.542969 165.160156 183.660156 165.308594 C 183.863281 165.542969 183.996094 165.953125 184.054688 166.539062 L 184.070312 167.289062 C 184.113281 169.160156 184.308594 172.734375 184.644531 178.015625 C 184.953125 182.792969 185.128906 186.378906 185.179688 188.773438 C 185.1875 189.078125 185.101562 189.351562 184.921875 189.59375 C 184.742188 189.835938 184.523438 189.960938 184.261719 189.96875 C 183.980469 189.972656 183.761719 189.875 183.617188 189.671875 " fill-opacity="1" fill-rule="nonzero"/><path fill="#e88b72" d="M 194.640625 182.171875 C 194.558594 181.21875 194.429688 180.03125 194.257812 178.621094 C 193.671875 173.730469 193.382812 170.707031 193.367188 169.597656 L 193.363281 169.335938 C 193.144531 169.554688 192.855469 170.546875 192.496094 172.300781 C 192.136719 174.058594 191.808594 175.941406 191.511719 177.945312 C 191.214844 179.953125 191.058594 181.28125 191.050781 181.933594 C 191.976562 182.179688 192.953125 182.296875 193.980469 182.28125 C 194.160156 182.277344 194.378906 182.242188 194.640625 182.171875 Z M 195.011719 189.085938 C 194.847656 188.957031 194.761719 188.742188 194.757812 188.4375 L 194.699219 184.164062 C 194.410156 183.972656 193.875 183.804688 193.082031 183.664062 C 192.292969 183.523438 191.546875 183.4375 190.84375 183.40625 C 190.613281 183.867188 190.457031 184.425781 190.347656 185.078125 C 190.304688 185.34375 190.148438 186.226562 190.050781 186.75 C 189.949219 187.273438 189.839844 187.726562 189.714844 188.109375 C 189.589844 188.492188 189.449219 188.949219 189.339844 189.015625 C 188.976562 189.226562 188.027344 188.820312 187.890625 188.386719 C 188.121094 188.035156 188.371094 187.007812 188.648438 185.304688 C 189.035156 182.910156 190.457031 174.058594 190.832031 172.050781 C 191.207031 170.042969 191.625 168.359375 192.0625 167.003906 C 192.554688 165.503906 193.03125 164.738281 193.496094 164.734375 C 193.964844 164.726562 194.496094 164.839844 194.566406 164.976562 C 194.792969 165.394531 194.808594 167.960938 195.285156 171.265625 C 195.753906 174.511719 196.019531 176.75 196.035156 177.945312 C 196.046875 179.097656 196.203125 180.761719 196.457031 182.898438 C 196.714844 185.078125 196.832031 186.84375 196.847656 188.148438 C 196.855469 188.886719 196.5 189.261719 195.785156 189.269531 C 195.433594 189.277344 195.179688 189.214844 195.011719 189.085938 " fill-opacity="1" fill-rule="nonzero"/><path fill="#e88b72" d="M 204.410156 173.746094 C 204.816406 172.859375 205.011719 171.863281 205.011719 170.753906 C 205.011719 170.742188 205.011719 170.738281 205.011719 170.722656 C 205.007812 170.222656 204.980469 169.542969 204.835938 168.832031 C 204.785156 168.582031 204.644531 168.308594 204.464844 168.050781 C 204.285156 167.789062 204.183594 167.640625 204.164062 167.59375 C 204.007812 167.378906 203.589844 167.050781 202.925781 166.589844 C 202.574219 166.347656 202.402344 166.222656 202.054688 165.976562 C 202.0625 167.085938 202.160156 168.804688 202.289062 171.128906 C 202.402344 173.191406 202.429688 174.222656 202.523438 176.285156 C 203.378906 175.472656 204.007812 174.628906 204.410156 173.746094 Z M 201.289062 189.066406 C 201.144531 188.863281 201.070312 188.605469 201.070312 188.300781 C 201.0625 186.109375 201.152344 178.109375 201.140625 176.652344 C 201.097656 171.585938 200.78125 167.707031 200.175781 165.011719 C 200.507812 164.511719 200.925781 164.257812 201.441406 164.253906 C 202.261719 164.246094 203.015625 164.421875 203.699219 164.777344 C 204.378906 165.128906 204.949219 165.605469 205.390625 166.21875 C 206.28125 167.464844 206.699219 168.890625 206.703125 170.457031 C 206.710938 172.085938 206.359375 173.546875 205.660156 174.832031 C 204.957031 176.117188 203.9375 177.121094 202.601562 177.847656 C 202.636719 179.167969 202.925781 187.113281 202.933594 188.027344 C 202.933594 188.441406 202.851562 188.765625 202.675781 189.007812 C 202.503906 189.25 202.234375 189.371094 201.863281 189.371094 C 201.621094 189.375 201.429688 189.273438 201.289062 189.066406 " fill-opacity="1" fill-rule="nonzero"/><path fill="#e88b72" d="M 213.953125 173.734375 C 214.363281 172.855469 214.570312 171.859375 214.574219 170.75 C 214.574219 170.738281 214.574219 170.730469 214.574219 170.71875 C 214.578125 170.21875 214.558594 169.539062 214.417969 168.824219 C 214.367188 168.574219 214.230469 168.304688 214.054688 168.039062 C 213.875 167.78125 213.777344 167.628906 213.753906 167.582031 C 213.597656 167.367188 213.183594 167.035156 212.523438 166.570312 C 212.175781 166.324219 212.003906 166.195312 211.660156 165.949219 C 211.65625 167.058594 211.742188 168.773438 211.851562 171.101562 C 211.949219 173.164062 211.96875 174.195312 212.042969 176.257812 C 212.902344 175.457031 213.539062 174.613281 213.953125 173.734375 Z M 210.699219 189.03125 C 210.558594 188.824219 210.488281 188.570312 210.488281 188.261719 C 210.5 186.070312 210.65625 178.074219 210.65625 176.617188 C 210.65625 171.546875 210.371094 167.664062 209.789062 164.96875 C 210.121094 164.46875 210.546875 164.21875 211.058594 164.21875 C 211.882812 164.21875 212.632812 164.398438 213.3125 164.761719 C 213.988281 165.121094 214.558594 165.601562 214.992188 166.21875 C 215.875 167.46875 216.28125 168.898438 216.269531 170.464844 C 216.261719 172.097656 215.898438 173.550781 215.1875 174.832031 C 214.476562 176.113281 213.449219 177.109375 212.105469 177.824219 C 212.132812 179.144531 212.355469 187.089844 212.355469 188.003906 C 212.351562 188.417969 212.265625 188.742188 212.089844 188.984375 C 211.914062 189.222656 211.644531 189.339844 211.273438 189.339844 C 211.035156 189.339844 210.84375 189.238281 210.699219 189.03125 " fill-opacity="1" fill-rule="nonzero"/><path fill="#e88b72" d="M 221.320312 189.394531 C 221.15625 189.238281 221.078125 189.054688 221.082031 188.835938 C 221.105469 187.570312 221.296875 183.207031 221.304688 182.507812 C 221.3125 181.878906 221.230469 180.925781 221.035156 179.699219 C 220.839844 178.488281 220.722656 177.53125 220.730469 176.859375 C 220.738281 176.03125 220.625 175.085938 220.394531 174.015625 C 220.15625 172.949219 219.855469 171.921875 219.488281 170.941406 C 219.140625 170.007812 218.851562 168.996094 218.613281 167.917969 C 218.378906 166.839844 218.261719 165.898438 218.265625 165.09375 C 218.269531 164.941406 218.359375 164.8125 218.535156 164.703125 C 218.714844 164.597656 218.90625 164.542969 219.105469 164.542969 C 219.351562 164.546875 219.578125 164.804688 219.800781 165.300781 C 220.054688 165.863281 220.3125 166.664062 220.546875 167.6875 C 220.785156 168.714844 220.925781 169.324219 220.964844 169.519531 C 221.144531 170.417969 221.195312 170.875 221.375 171.773438 C 221.492188 172.351562 221.566406 172.636719 221.691406 173.214844 C 221.761719 172.867188 221.824219 172.410156 221.871094 171.84375 C 222.027344 170.046875 222.195312 168.527344 222.417969 167.347656 C 222.570312 166.53125 222.765625 165.894531 222.96875 165.460938 C 223.195312 164.984375 223.464844 164.75 223.78125 164.753906 C 224.378906 164.757812 224.679688 164.871094 224.675781 165.089844 C 224.660156 166.328125 224.371094 168.152344 223.8125 170.558594 C 223.253906 172.96875 222.96875 174.804688 222.953125 176.066406 C 222.925781 176.273438 222.914062 176.378906 222.882812 176.585938 C 222.835938 176.914062 222.820312 177.109375 222.84375 177.171875 C 222.84375 177.171875 222.941406 186.792969 222.964844 187.09375 L 223.019531 187.878906 L 223.011719 188.691406 C 223.007812 188.953125 222.898438 189.175781 222.675781 189.359375 C 222.457031 189.539062 222.195312 189.628906 221.890625 189.628906 C 221.671875 189.625 221.480469 189.546875 221.320312 189.394531 " fill-opacity="1" fill-rule="nonzero"/><g clip-path="url(#dc4968eb47)"><path fill="#ff953f" d="M 144.734375 246.5 C 144.625 247.375 143.769531 248.003906 142.902344 248.15625 C 142.035156 248.296875 141.148438 248.070312 140.289062 247.851562 C 138.871094 247.472656 137.429688 247.085938 136.160156 246.335938 C 135.011719 245.664062 134.011719 244.625 133.613281 243.371094 C 133.570312 243.238281 133.535156 243.109375 133.503906 242.96875 C 132.851562 239.902344 136.191406 235.605469 138.339844 233.6875 C 138.792969 233.277344 139.207031 232.996094 139.5625 232.808594 C 142.285156 231.445312 142.351562 236.070312 142.070312 238.753906 C 141.917969 240.316406 141.917969 242.015625 142.804688 243.304688 C 143.542969 244.355469 144.886719 245.230469 144.734375 246.5 " fill-opacity="1" fill-rule="nonzero"/></g><path fill="#ff953f" d="M 115.203125 139.574219 C 113.96875 140.972656 111.820312 141.003906 109.988281 140.691406 C 108.351562 140.421875 103.308594 141.1875 102.953125 139.347656 C 102.921875 139.195312 102.910156 139.035156 102.910156 138.882812 C 102.921875 138.242188 103.160156 137.59375 103.417969 136.996094 L 105.566406 131.777344 C 106.203125 130.21875 107.027344 128.472656 108.632812 127.945312 C 109.121094 127.78125 109.632812 127.761719 110.128906 127.835938 C 111.019531 127.976562 111.886719 128.453125 112.535156 129.09375 C 113.566406 130.078125 114.195312 131.398438 114.800781 132.675781 C 115.324219 133.792969 115.855469 134.917969 116.039062 136.121094 C 116.222656 137.332031 116.015625 138.664062 115.203125 139.574219 " fill-opacity="1" fill-rule="nonzero"/><path fill="#ff953f" d="M 128.460938 146.289062 C 127.421875 147.058594 125.9375 146.917969 124.808594 146.300781 C 123.746094 145.714844 122.933594 144.785156 122.164062 143.84375 C 122.109375 143.789062 122.066406 143.734375 122.023438 143.679688 L 122.261719 142.714844 C 123.140625 141.6875 124.40625 140.949219 125.75 140.875 C 127.007812 140.808594 128.308594 141.382812 129.003906 142.421875 C 129.070312 142.488281 129.113281 142.574219 129.15625 142.652344 C 129.808594 143.832031 129.546875 145.488281 128.460938 146.289062 " fill-opacity="1" fill-rule="nonzero"/><path fill="#ff953f" d="M 229.601562 211.453125 L 227.519531 221.675781 C 227.25 223.007812 226.78125 224.570312 225.492188 224.992188 C 224.40625 225.347656 223.214844 224.664062 222.578125 223.734375 C 222.554688 223.710938 222.542969 223.703125 222.53125 223.679688 C 221.894531 222.71875 221.664062 221.535156 221.371094 220.421875 C 220.308594 216.402344 218.128906 214.292969 215.703125 211.214844 C 213.25 208.105469 215.464844 205.929688 219.28125 206.058594 C 219.757812 206.082031 220.234375 206.09375 220.699219 206.105469 C 222.425781 206.167969 224.148438 206.222656 225.859375 206.277344 C 227.007812 206.308594 228.265625 206.394531 229.070312 207.207031 C 230.121094 208.269531 229.894531 209.992188 229.601562 211.453125 " fill-opacity="1" fill-rule="nonzero"/><path fill="#ff953f" d="M 247.226562 139.164062 C 246.15625 138.351562 245.375 137.09375 244.90625 135.71875 C 243.542969 131.714844 244.960938 126.742188 250.273438 128.972656 C 253.179688 130.1875 256.085938 131.410156 258.992188 132.632812 C 259.261719 132.753906 259.554688 132.882812 259.828125 133.035156 C 260.453125 133.378906 261.007812 133.847656 261.128906 134.527344 C 261.863281 138.632812 250.113281 141.375 247.226562 139.164062 " fill-opacity="1" fill-rule="nonzero"/><path fill="#ff953f" d="M 221.078125 236.125 C 221.15625 237.175781 220.277344 238.019531 219.472656 238.703125 L 214.550781 242.894531 C 214.207031 243.183594 213.828125 243.5 213.371094 243.519531 C 212.527344 243.554688 212.003906 242.621094 211.691406 241.832031 C 211.171875 240.511719 209.371094 237.433594 208.90625 235.128906 C 208.730469 234.261719 208.742188 233.503906 209.089844 232.996094 C 210.59375 230.761719 216.4375 233.082031 218.445312 233.761719 C 219.496094 234.121094 220.667969 234.714844 220.980469 235.703125 C 221.035156 235.832031 221.070312 235.972656 221.078125 236.125 " fill-opacity="1" fill-rule="nonzero"/><path fill="#ffab48" d="M 140.507812 244.667969 C 140.007812 245.125 139.226562 244.972656 138.578125 244.789062 C 136.929688 244.3125 135.269531 243.835938 133.613281 243.371094 C 133.570312 243.238281 133.535156 243.109375 133.503906 242.96875 C 132.851562 239.902344 136.191406 235.605469 138.339844 233.6875 C 138.792969 233.277344 139.207031 232.996094 139.5625 232.808594 C 140.082031 234.066406 139.640625 236.351562 139.78125 237.726562 C 139.941406 239.285156 140.679688 241.042969 140.679688 242.566406 C 140.875 243.28125 141.050781 244.171875 140.507812 244.667969 " fill-opacity="1" fill-rule="nonzero"/><path fill="#ffab48" d="M 220.980469 235.703125 C 220.65625 236.039062 220.222656 236.296875 219.8125 236.523438 L 215.941406 238.703125 C 215.441406 238.984375 214.921875 239.277344 214.347656 239.308594 C 212.90625 239.40625 210.304688 237.238281 208.90625 235.128906 C 208.730469 234.261719 208.742188 233.503906 209.089844 232.996094 C 210.59375 230.761719 216.4375 233.082031 218.445312 233.761719 C 219.496094 234.121094 220.667969 234.714844 220.980469 235.703125 " fill-opacity="1" fill-rule="nonzero"/><path fill="#ffab48" d="M 224.050781 221.730469 C 223.734375 222.488281 223.363281 223.324219 222.640625 223.703125 C 222.617188 223.714844 222.597656 223.722656 222.578125 223.734375 C 222.554688 223.710938 222.542969 223.703125 222.53125 223.679688 C 221.894531 222.71875 221.664062 221.535156 221.371094 220.421875 C 220.308594 216.402344 218.128906 214.292969 215.703125 211.214844 C 213.25 208.105469 215.464844 205.929688 219.28125 206.058594 C 219.757812 206.082031 220.234375 206.09375 220.699219 206.105469 C 223.464844 207.640625 225.71875 210.097656 226.054688 213.285156 C 226.359375 216.199219 225.1875 219.035156 224.050781 221.730469 " fill-opacity="1" fill-rule="nonzero"/><path fill="#ffab48" d="M 259.828125 133.035156 C 259.773438 133.121094 259.71875 133.207031 259.652344 133.292969 C 258.40625 135.039062 256.292969 135.992188 254.179688 136.304688 C 252.050781 136.609375 249.90625 136.347656 247.78125 136.078125 L 244.90625 135.71875 C 243.542969 131.714844 244.960938 126.742188 250.273438 128.972656 C 253.179688 130.1875 256.085938 131.410156 258.992188 132.632812 C 259.261719 132.753906 259.554688 132.882812 259.828125 133.035156 " fill-opacity="1" fill-rule="nonzero"/><path fill="#ffab48" d="M 129.003906 142.421875 C 128.667969 143.269531 128.222656 144.082031 127.441406 144.492188 C 126.371094 145.054688 125.058594 144.675781 123.910156 144.296875 C 123.507812 144.167969 122.847656 144.015625 122.164062 143.84375 C 122.109375 143.789062 122.066406 143.734375 122.023438 143.679688 L 122.261719 142.714844 C 123.140625 141.6875 124.40625 140.949219 125.75 140.875 C 127.007812 140.808594 128.308594 141.382812 129.003906 142.421875 " fill-opacity="1" fill-rule="nonzero"/><path fill="#ffab48" d="M 112.796875 135.566406 C 112.839844 136.28125 112.632812 137.0625 112.09375 137.539062 C 111.515625 138.027344 110.714844 138.113281 109.964844 138.179688 C 108.667969 138.285156 105.140625 139.121094 102.910156 138.882812 C 102.921875 138.242188 103.160156 137.59375 103.417969 136.996094 L 105.566406 131.777344 C 106.203125 130.21875 107.027344 128.472656 108.632812 127.945312 C 109.121094 127.78125 109.632812 127.761719 110.128906 127.835938 C 110.152344 127.910156 110.183594 127.976562 110.207031 128.042969 C 110.851562 129.863281 111.570312 131.667969 112.253906 133.476562 C 112.503906 134.148438 112.765625 134.84375 112.796875 135.566406 " fill-opacity="1" fill-rule="nonzero"/></svg>